<?xml version="1.0" encoding="UTF-8" standalone="no"?>
<!-- Created with Inkscape (http://www.inkscape.org/) -->

<svg
   width="29.960512mm"
   height="11.98127mm"
   viewBox="0 0 106.15929 42.453318"
   id="svg2"
   version="1.1"
   inkscape:version="1.4.2 (ebf0e940d0, 2025-05-08)"
   sodipodi:docname="-+.svg"
   xmlns:inkscape="http://www.inkscape.org/namespaces/inkscape"
   xmlns:sodipodi="http://sodipodi.sourceforge.net/DTD/sodipodi-0.dtd"
   xmlns="http://www.w3.org/2000/svg"
   xmlns:svg="http://www.w3.org/2000/svg"
   xmlns:rdf="http://www.w3.org/1999/02/22-rdf-syntax-ns#"
   xmlns:cc="http://creativecommons.org/ns#"
   xmlns:dc="http://purl.org/dc/elements/1.1/">
  <defs
     id="defs4">
    <clipPath
       id="clipEmfPath1"
       clipPathUnits="userSpaceOnUse">
      <path
         inkscape:connector-curvature="0"
         id="path3341"
         d="" />
    </clipPath>
    <clipPath
       id="clipEmfPath2"
       clipPathUnits="userSpaceOnUse">
      <path
         inkscape:connector-curvature="0"
         id="path3344"
         d="M 0,16.2537 H 5758.82 V 5801.33 H 0 Z" />
    </clipPath>
    <pattern
       y="0"
       x="0"
       height="6"
       width="6"
       patternUnits="userSpaceOnUse"
       id="EMFhbasepattern" />
    <clipPath
       id="clipEmfPath1-3"
       clipPathUnits="userSpaceOnUse">
      <path
         inkscape:connector-curvature="0"
         id="path3541"
         d="M -1.25029,0 H 743.92 V 652.649 H -1.25029 Z" />
    </clipPath>
    <pattern
       y="0"
       x="0"
       height="6"
       width="6"
       patternUnits="userSpaceOnUse"
       id="EMFhbasepattern-9" />
    <clipPath
       id="clipEmfPath1-9"
       clipPathUnits="userSpaceOnUse">
      <path
         inkscape:connector-curvature="0"
         id="path3736"
         d="M -1.25029,0 H 743.92 V 652.649 H -1.25029 Z" />
    </clipPath>
    <pattern
       y="0"
       x="0"
       height="6"
       width="6"
       patternUnits="userSpaceOnUse"
       id="EMFhbasepattern-92" />
    <clipPath
       id="clipEmfPath1-35"
       clipPathUnits="userSpaceOnUse">
      <path
         inkscape:connector-curvature="0"
         id="path3931"
         d="M -1.25029,7.50172 H 743.92 V 660.151 H -1.25029 Z" />
    </clipPath>
    <pattern
       y="0"
       x="0"
       height="6"
       width="6"
       patternUnits="userSpaceOnUse"
       id="EMFhbasepattern-8" />
    <clipPath
       id="clipEmfPath1-35-3"
       clipPathUnits="userSpaceOnUse">
      <path
         inkscape:connector-curvature="0"
         id="path3931-6"
         d="M -1.25029,7.50172 H 743.92 V 660.151 H -1.25029 Z" />
    </clipPath>
  </defs>
  <sodipodi:namedview
     id="base"
     pagecolor="#ffffff"
     bordercolor="#666666"
     borderopacity="1.0"
     inkscape:pageopacity="0.0"
     inkscape:pageshadow="2"
     inkscape:zoom="1"
     inkscape:cx="148.52333"
     inkscape:cy="151.1029"
     inkscape:document-units="px"
     inkscape:current-layer="layer1"
     showgrid="false"
     fit-margin-top="0"
     fit-margin-left="0"
     fit-margin-right="0"
     fit-margin-bottom="0"
     inkscape:window-width="1366"
     inkscape:window-height="706"
     inkscape:window-x="-8"
     inkscape:window-y="-8"
     inkscape:window-maximized="1"
     inkscape:showpageshadow="2"
     inkscape:pagecheckerboard="0"
     inkscape:deskcolor="#d1d1d1" />
  <metadata
     id="metadata7">
    <rdf:RDF>
      <cc:Work
         rdf:about="">
        <dc:format>image/svg+xml</dc:format>
        <dc:type
           rdf:resource="http://purl.org/dc/dcmitype/StillImage" />
      </cc:Work>
    </rdf:RDF>
  </metadata>
  <g
     inkscape:label="Layer 1"
     inkscape:groupmode="layer"
     id="layer1"
     transform="translate(-213.82493,-301.41562)">
    <g
       id="g2"
       transform="translate(0,-42.453316)">
      <path
         inkscape:connector-curvature="0"
         id="path3998"
         d="m 296.88291,356.25203 0.35278,-5.97662"
         style="fill:none;stroke:#000000;stroke-width:0.948307px;stroke-linecap:butt;stroke-linejoin:round;stroke-miterlimit:10;stroke-dasharray:none;stroke-opacity:1" />
      <path
         inkscape:connector-curvature="0"
         id="path4018"
         d="m 298.77944,344.34309 c -11.4458,0 -20.73035,9.30656 -20.73035,20.75237 0,11.4681 9.28455,20.75265 20.73035,20.75265 11.44609,0 20.73064,-9.28455 20.73064,-20.75265 0,-11.44581 -9.28455,-20.75237 -20.73064,-20.75237 z"
         style="fill:#5b9bd5;fill-opacity:1;fill-rule:evenodd;stroke:none" />
      <path
         transform="matrix(0.28222222,0,0,0.28222222,225.84814,200.79584)"
         inkscape:connector-curvature="0"
         id="path4020"
         d="m 258.418,508.632 c -40.556,0 -73.454,32.976 -73.454,73.532 0,40.635 32.898,73.533 73.454,73.533 40.557,0 73.455,-32.898 73.455,-73.533 0,-40.556 -32.898,-73.532 -73.455,-73.532"
         clip-path="url(#clipEmfPath1-35)"
         style="fill:none;stroke:#000000;stroke-width:3.36014px;stroke-linecap:butt;stroke-linejoin:round;stroke-miterlimit:10;stroke-dasharray:none;stroke-opacity:1" />
      <path
         inkscape:connector-curvature="0"
         id="path4022"
         d="m 304.11655,348.88603 c 0.26472,-0.13208 4.7196,1.30132 6.48377,3.683 1.76417,2.38195 3.04349,5.60182 2.77876,5.7339 -0.26472,0.13237 -2.91112,-3.41827 -4.34453,-4.91772 -1.4334,-1.49973 -5.20474,-4.25647 -4.918,-4.49918 z"
         style="fill:#ffffff;fill-opacity:1;fill-rule:evenodd;stroke:none" />
      <path
         inkscape:connector-curvature="0"
         id="path4024"
         d="m 304.11655,348.88603 c 0.26472,-0.13208 4.7196,1.30132 6.48377,3.683 1.76417,2.38195 3.04349,5.60182 2.77876,5.7339 -0.26472,0.13237 -2.91112,-3.41827 -4.34453,-4.91772 -1.4334,-1.49973 -5.20474,-4.25647 -4.918,-4.49918"
         style="fill:none;stroke:#000000;stroke-width:0.948307px;stroke-linecap:butt;stroke-linejoin:round;stroke-miterlimit:10;stroke-dasharray:none;stroke-opacity:1" />
      <path
         inkscape:connector-curvature="0"
         id="path4038"
         d="m 291.08296,363.94879 v 3.79335 h 14.44498 v -3.79335 z"
         style="fill:none;stroke:#000000;stroke-width:0.948307px;stroke-linecap:butt;stroke-linejoin:miter;stroke-miterlimit:8;stroke-dasharray:none;stroke-opacity:1" />
      <path
         inkscape:connector-curvature="0"
         id="path4040"
         d="m 300.01445,358.74405 h -3.77105 v 14.42325 h 3.77105 z"
         style="fill:#ffffff;fill-opacity:1;fill-rule:evenodd;stroke:none" />
      <path
         inkscape:connector-curvature="0"
         id="path4042"
         d="m 300.01445,358.74405 h -3.77105 v 14.42325 h 3.77105 z"
         style="fill:none;stroke:#000000;stroke-width:0.948307px;stroke-linecap:butt;stroke-linejoin:miter;stroke-miterlimit:8;stroke-dasharray:none;stroke-opacity:1" />
      <path
         inkscape:connector-curvature="0"
         id="path4044"
         d="m 291.50178,364.27955 v 3.04349 h 13.56304 v -3.04349 z"
         style="fill:#ffffff;fill-opacity:1;fill-rule:evenodd;stroke:none" />
    </g>
    <text
       xml:space="preserve"
       style="font-size:17.5px;font-family:ABeeZee;-inkscape-font-specification:'ABeeZee, Normal';text-align:start;writing-mode:lr-tb;direction:ltr;text-anchor:start;fill:#000000;stroke-width:3.54331;stroke-linecap:round;stroke-linejoin:round"
       x="111.16418"
       y="185.32082"
       id="text1"><tspan
         sodipodi:role="line"
         id="tspan1"
         style="stroke-width:3.54331"
         x="111.16418"
         y="185.32082">https://openclipart.org/detail/232806/physic-diagram-oppositely-charged-pith-balls-attract</tspan></text>
    <g
       id="g1"
       transform="translate(9.375,-38.703316)">
      <path
         inkscape:connector-curvature="0"
         id="path3964"
         d="m 226.29395,350.23042 3.30821,-5.00606"
         style="fill:none;stroke:#000000;stroke-width:0.948307px;stroke-linecap:butt;stroke-linejoin:round;stroke-miterlimit:10;stroke-dasharray:none;stroke-opacity:1" />
      <path
         inkscape:connector-curvature="0"
         id="path4010"
         d="m 225.63243,340.59309 c -11.44581,0 -20.70834,9.30656 -20.70834,20.75237 0,11.4681 9.26253,20.75265 20.70834,20.75265 11.4458,0 20.73035,-9.28455 20.73035,-20.75265 0,-11.44581 -9.28455,-20.75237 -20.73035,-20.75237 z"
         style="fill:#5b9bd5;fill-opacity:1;fill-rule:evenodd;stroke:none" />
      <path
         transform="matrix(0.28222222,0,0,0.28222222,89.31881,197.04584)"
         inkscape:connector-curvature="0"
         id="path4012"
         d="m 483.001,508.632 c -40.556,0 -73.376,32.976 -73.376,73.532 0,40.635 32.82,73.533 73.376,73.533 40.556,0 73.454,-32.898 73.454,-73.533 0,-40.556 -32.898,-73.532 -73.454,-73.532"
         clip-path="url(#clipEmfPath1-35-3)"
         style="fill:none;stroke:#000000;stroke-width:3.36014px;stroke-linecap:butt;stroke-linejoin:round;stroke-miterlimit:10;stroke-dasharray:none;stroke-opacity:1" />
      <path
         inkscape:connector-curvature="0"
         id="path4014"
         d="m 230.99154,345.13603 c 0.24243,-0.13208 4.69731,1.30132 6.46176,3.683 1.76417,2.38195 3.04321,5.60182 2.80078,5.7339 -0.26473,0.13237 -2.91113,-3.41827 -4.34453,-4.91772 -1.4557,-1.49973 -5.22676,-4.25647 -4.91801,-4.49918 z"
         style="fill:#ffffff;fill-opacity:1;fill-rule:evenodd;stroke:none" />
      <path
         inkscape:connector-curvature="0"
         id="path4016"
         d="m 230.99154,345.13603 c 0.24243,-0.13208 4.69731,1.30132 6.46176,3.683 1.76417,2.38195 3.04321,5.60182 2.80078,5.7339 -0.26473,0.13237 -2.91113,-3.41827 -4.34453,-4.91772 -1.4557,-1.49973 -5.22676,-4.25647 -4.91801,-4.49918"
         style="fill:none;stroke:#000000;stroke-width:0.948307px;stroke-linecap:butt;stroke-linejoin:round;stroke-miterlimit:10;stroke-dasharray:none;stroke-opacity:1" />
      <path
         inkscape:connector-curvature="0"
         id="path4026"
         d="m 217.78129,360.81629 v 3.77106 h 14.42324 v -3.77106 z"
         style="fill:#ffffff;fill-opacity:1;fill-rule:evenodd;stroke:none" />
      <path
         inkscape:connector-curvature="0"
         id="path4028"
         d="m 217.78129,360.81629 v 3.77106 h 14.42324 v -3.77106 z"
         style="fill:none;stroke:#000000;stroke-width:0.948307px;stroke-linecap:butt;stroke-linejoin:miter;stroke-miterlimit:8;stroke-dasharray:none;stroke-opacity:1" />
    </g>
  </g>
</svg>
