<?xml version="1.0" encoding="UTF-8" standalone="no"?>
<!-- Created with Inkscape (http://www.inkscape.org/) -->

<svg
   width="58.854443mm"
   height="51.43541mm"
   viewBox="0 0 208.53936 182.25145"
   id="svg2"
   version="1.1"
   inkscape:version="1.4.2 (ebf0e940d0, 2025-05-08)"
   sodipodi:docname="opposite-pith-balls-attract.svg"
   xmlns:inkscape="http://www.inkscape.org/namespaces/inkscape"
   xmlns:sodipodi="http://sodipodi.sourceforge.net/DTD/sodipodi-0.dtd"
   xmlns="http://www.w3.org/2000/svg"
   xmlns:svg="http://www.w3.org/2000/svg"
   xmlns:rdf="http://www.w3.org/1999/02/22-rdf-syntax-ns#"
   xmlns:cc="http://creativecommons.org/ns#"
   xmlns:dc="http://purl.org/dc/elements/1.1/">
  <defs
     id="defs4">
    <clipPath
       id="clipEmfPath1"
       clipPathUnits="userSpaceOnUse">
      <path
         inkscape:connector-curvature="0"
         id="path3341"
         d="" />
    </clipPath>
    <clipPath
       id="clipEmfPath2"
       clipPathUnits="userSpaceOnUse">
      <path
         inkscape:connector-curvature="0"
         id="path3344"
         d="m 0,16.2537 5758.82,0 0,5785.0763 -5758.82,0 z" />
    </clipPath>
    <pattern
       y="0"
       x="0"
       height="6"
       width="6"
       patternUnits="userSpaceOnUse"
       id="EMFhbasepattern" />
    <clipPath
       id="clipEmfPath1-3"
       clipPathUnits="userSpaceOnUse">
      <path
         inkscape:connector-curvature="0"
         id="path3541"
         d="M -1.25029,0 743.92,0 l 0,652.649 -745.17029,0 z" />
    </clipPath>
    <pattern
       y="0"
       x="0"
       height="6"
       width="6"
       patternUnits="userSpaceOnUse"
       id="EMFhbasepattern-9" />
    <clipPath
       id="clipEmfPath1-9"
       clipPathUnits="userSpaceOnUse">
      <path
         inkscape:connector-curvature="0"
         id="path3736"
         d="M -1.25029,0 743.92,0 l 0,652.649 -745.17029,0 z" />
    </clipPath>
    <pattern
       y="0"
       x="0"
       height="6"
       width="6"
       patternUnits="userSpaceOnUse"
       id="EMFhbasepattern-92" />
    <clipPath
       id="clipEmfPath1-35"
       clipPathUnits="userSpaceOnUse">
      <path
         inkscape:connector-curvature="0"
         id="path3931"
         d="m -1.25029,7.50172 745.17029,0 0,652.64928 -745.17029,0 z" />
    </clipPath>
    <pattern
       y="0"
       x="0"
       height="6"
       width="6"
       patternUnits="userSpaceOnUse"
       id="EMFhbasepattern-8" />
  </defs>
  <sodipodi:namedview
     id="base"
     pagecolor="#ffffff"
     bordercolor="#666666"
     borderopacity="1.0"
     inkscape:pageopacity="0.0"
     inkscape:pageshadow="2"
     inkscape:zoom="1"
     inkscape:cx="148.52333"
     inkscape:cy="151.1029"
     inkscape:document-units="px"
     inkscape:current-layer="layer1"
     showgrid="false"
     fit-margin-top="0"
     fit-margin-left="0"
     fit-margin-right="0"
     fit-margin-bottom="0"
     inkscape:window-width="1366"
     inkscape:window-height="706"
     inkscape:window-x="-8"
     inkscape:window-y="-8"
     inkscape:window-maximized="1"
     inkscape:showpageshadow="2"
     inkscape:pagecheckerboard="0"
     inkscape:deskcolor="#d1d1d1" />
  <metadata
     id="metadata7">
    <rdf:RDF>
      <cc:Work
         rdf:about="">
        <dc:format>image/svg+xml</dc:format>
        <dc:type
           rdf:resource="http://purl.org/dc/dcmitype/StillImage" />
      </cc:Work>
    </rdf:RDF>
  </metadata>
  <g
     inkscape:label="Layer 1"
     inkscape:groupmode="layer"
     id="layer1"
     transform="translate(-226.47668,-204.07081)">
    <text
       id="text3835"
       y="807.01978"
       x="237.13539"
       style="font-style:normal;font-variant:normal;font-weight:400;line-height:0%;font-family:Calibri;text-align:start;letter-spacing:0px;word-spacing:0px;text-anchor:start;fill:#000000;fill-opacity:1;stroke:none"
       xml:space="preserve"><tspan
         id="tspan3837"
         y="807.01978"
         x="237.13539"
         sodipodi:role="line"
         style="font-size:16.25px;line-height:1.25"> <tspan
   id="tspan3839"
   style="font-style:normal;font-variant:normal;font-weight:400;font-size:16.25px;font-family:Calibri;fill:#000000"
   dy="0"
   dx="0" /></tspan></text>
    <text
       id="text3853"
       y="800.76837"
       x="808.51611"
       style="font-style:normal;font-variant:normal;font-weight:400;line-height:0%;font-family:Calibri;text-align:start;letter-spacing:0px;word-spacing:0px;text-anchor:start;fill:#000000;fill-opacity:1;stroke:none"
       xml:space="preserve"><tspan
         id="tspan3855"
         y="800.76837"
         x="808.51611"
         sodipodi:role="line"
         style="font-size:16.25px;line-height:1.25"> <tspan
   id="tspan3857"
   style="font-style:normal;font-variant:normal;font-weight:400;font-size:16.25px;font-family:Calibri;fill:#000000"
   dy="0"
   dx="0" /></tspan></text>
    <path
       inkscape:connector-curvature="0"
       id="path3934"
       d="m 360.15487,353.23084 4.38884,1.27903 42.49731,-146.96562 -4.41086,-1.27911 z"
       style="fill:#fff3cc;fill-opacity:1;fill-rule:evenodd;stroke:none" />
    <path
       transform="matrix(0.28222222,0,0,0.28222222,225.84814,200.79584)"
       inkscape:connector-curvature="0"
       id="path3936"
       d="m 475.89,540.124 15.551,4.532 150.581,-520.7443 -15.629,-4.5323 z"
       clip-path="url(#clipEmfPath1-35)"
       style="fill:none;stroke:#000000;stroke-width:3.36014342px;stroke-linecap:butt;stroke-linejoin:miter;stroke-miterlimit:8;stroke-dasharray:none;stroke-opacity:1" />
    <path
       inkscape:connector-curvature="0"
       id="path3938"
       d="m 360.64001,351.53271 8.64503,-12.98985"
       style="fill:none;stroke:#000000;stroke-width:0.94830716px;stroke-linecap:butt;stroke-linejoin:round;stroke-miterlimit:10;stroke-dasharray:none;stroke-opacity:1" />
    <path
       inkscape:connector-curvature="0"
       id="path3940"
       d="m 363.57315,341.03517 8.64503,-13.01186"
       style="fill:none;stroke:#000000;stroke-width:0.94830716px;stroke-linecap:butt;stroke-linejoin:round;stroke-miterlimit:10;stroke-dasharray:none;stroke-opacity:1" />
    <path
       inkscape:connector-curvature="0"
       id="path3942"
       d="m 366.77101,330.18457 8.62302,-12.98956"
       style="fill:none;stroke:#000000;stroke-width:0.94830716px;stroke-linecap:butt;stroke-linejoin:round;stroke-miterlimit:10;stroke-dasharray:none;stroke-opacity:1" />
    <path
       inkscape:connector-curvature="0"
       id="path3944"
       d="m 369.92456,319.33425 8.62302,-12.98956"
       style="fill:none;stroke:#000000;stroke-width:0.94830716px;stroke-linecap:butt;stroke-linejoin:round;stroke-miterlimit:10;stroke-dasharray:none;stroke-opacity:1" />
    <path
       inkscape:connector-curvature="0"
       id="path3946"
       d="m 373.16645,308.26324 8.62301,-12.98956"
       style="fill:none;stroke:#000000;stroke-width:0.94830716px;stroke-linecap:butt;stroke-linejoin:round;stroke-miterlimit:10;stroke-dasharray:none;stroke-opacity:1" />
    <path
       inkscape:connector-curvature="0"
       id="path3948"
       d="m 376.23194,297.41292 8.64504,-13.01157"
       style="fill:none;stroke:#000000;stroke-width:0.94830716px;stroke-linecap:butt;stroke-linejoin:round;stroke-miterlimit:10;stroke-dasharray:none;stroke-opacity:1" />
    <path
       inkscape:connector-curvature="0"
       id="path3950"
       d="m 379.38578,286.56261 8.62302,-13.01186"
       style="fill:none;stroke:#000000;stroke-width:0.94830716px;stroke-linecap:butt;stroke-linejoin:round;stroke-miterlimit:10;stroke-dasharray:none;stroke-opacity:1" />
    <path
       inkscape:connector-curvature="0"
       id="path3952"
       d="m 382.53933,275.77833 8.62302,-12.98956"
       style="fill:none;stroke:#000000;stroke-width:0.94830716px;stroke-linecap:butt;stroke-linejoin:round;stroke-miterlimit:10;stroke-dasharray:none;stroke-opacity:1" />
    <path
       inkscape:connector-curvature="0"
       id="path3954"
       d="m 385.62684,264.92774 8.62302,-13.01158"
       style="fill:none;stroke:#000000;stroke-width:0.94830716px;stroke-linecap:butt;stroke-linejoin:round;stroke-miterlimit:10;stroke-dasharray:none;stroke-opacity:1" />
    <path
       inkscape:connector-curvature="0"
       id="path3956"
       d="m 388.78067,254.07742 8.62274,-13.01157"
       style="fill:none;stroke:#000000;stroke-width:0.94830716px;stroke-linecap:butt;stroke-linejoin:round;stroke-miterlimit:10;stroke-dasharray:none;stroke-opacity:1" />
    <path
       inkscape:connector-curvature="0"
       id="path3958"
       d="m 391.86818,243.18308 8.62274,-13.01186"
       style="fill:none;stroke:#000000;stroke-width:0.94830716px;stroke-linecap:butt;stroke-linejoin:round;stroke-miterlimit:10;stroke-dasharray:none;stroke-opacity:1" />
    <path
       inkscape:connector-curvature="0"
       id="path3960"
       d="m 395.04375,232.33248 8.62302,-12.9895"
       style="fill:none;stroke:#000000;stroke-width:0.94830716px;stroke-linecap:butt;stroke-linejoin:round;stroke-miterlimit:10;stroke-dasharray:none;stroke-opacity:1" />
    <path
       inkscape:connector-curvature="0"
       id="path3962"
       d="m 398.19758,221.48217 8.62274,-12.98959"
       style="fill:none;stroke:#000000;stroke-width:0.94830716px;stroke-linecap:butt;stroke-linejoin:round;stroke-miterlimit:10;stroke-dasharray:none;stroke-opacity:1" />
    <path
       inkscape:connector-curvature="0"
       id="path3964"
       d="m 362.82328,353.98042 3.30821,-5.00606"
       style="fill:none;stroke:#000000;stroke-width:0.94830716px;stroke-linecap:butt;stroke-linejoin:round;stroke-miterlimit:10;stroke-dasharray:none;stroke-opacity:1" />
    <path
       inkscape:connector-curvature="0"
       id="path3966"
       d="m 401.54954,210.10249 2.42598,-3.5286"
       style="fill:none;stroke:#000000;stroke-width:0.94830716px;stroke-linecap:butt;stroke-linejoin:round;stroke-miterlimit:10;stroke-dasharray:none;stroke-opacity:1" />
    <path
       inkscape:connector-curvature="0"
       id="path3968"
       d="m 294.19249,356.97988 4.45487,-1.12466 -37.4252,-148.33301 -4.43287,1.12474 z"
       style="fill:#fff3cc;fill-opacity:1;fill-rule:evenodd;stroke:none" />
    <path
       inkscape:connector-curvature="0"
       id="path3970"
       d="m 294.19249,356.97988 4.45487,-1.12466 -37.4252,-148.33301 -4.43287,1.12474 z"
       style="fill:none;stroke:#000000;stroke-width:0.94830716px;stroke-linecap:butt;stroke-linejoin:miter;stroke-miterlimit:8;stroke-dasharray:none;stroke-opacity:1" />
    <path
       inkscape:connector-curvature="0"
       id="path3972"
       d="m 293.77339,355.25973 0.90424,-15.59193"
       style="fill:none;stroke:#000000;stroke-width:0.94830716px;stroke-linecap:butt;stroke-linejoin:round;stroke-miterlimit:10;stroke-dasharray:none;stroke-opacity:1" />
    <path
       inkscape:connector-curvature="0"
       id="path3974"
       d="m 291.01664,344.69587 0.90424,-15.56992"
       style="fill:none;stroke:#000000;stroke-width:0.94830716px;stroke-linecap:butt;stroke-linejoin:round;stroke-miterlimit:10;stroke-dasharray:none;stroke-opacity:1" />
    <path
       inkscape:connector-curvature="0"
       id="path3976"
       d="m 288.3042,333.73521 0.88195,-15.56992"
       style="fill:none;stroke:#000000;stroke-width:0.94830716px;stroke-linecap:butt;stroke-linejoin:round;stroke-miterlimit:10;stroke-dasharray:none;stroke-opacity:1" />
    <path
       inkscape:connector-curvature="0"
       id="path3978"
       d="m 285.54746,322.77454 0.90424,-15.56991"
       style="fill:none;stroke:#000000;stroke-width:0.94830716px;stroke-linecap:butt;stroke-linejoin:round;stroke-miterlimit:10;stroke-dasharray:none;stroke-opacity:1" />
    <path
       inkscape:connector-curvature="0"
       id="path3980"
       d="m 282.7687,311.59346 0.88194,-15.59193"
       style="fill:none;stroke:#000000;stroke-width:0.94830716px;stroke-linecap:butt;stroke-linejoin:round;stroke-miterlimit:10;stroke-dasharray:none;stroke-opacity:1" />
    <path
       inkscape:connector-curvature="0"
       id="path3982"
       d="m 279.94563,300.65481 0.90424,-15.59193"
       style="fill:none;stroke:#000000;stroke-width:0.94830716px;stroke-linecap:butt;stroke-linejoin:round;stroke-miterlimit:10;stroke-dasharray:none;stroke-opacity:1" />
    <path
       inkscape:connector-curvature="0"
       id="path3984"
       d="m 277.18916,289.69415 0.90396,-15.59193"
       style="fill:none;stroke:#000000;stroke-width:0.94830716px;stroke-linecap:butt;stroke-linejoin:round;stroke-miterlimit:10;stroke-dasharray:none;stroke-opacity:1" />
    <path
       inkscape:connector-curvature="0"
       id="path3986"
       d="m 274.47644,278.79952 0.90424,-15.56992"
       style="fill:none;stroke:#000000;stroke-width:0.94830716px;stroke-linecap:butt;stroke-linejoin:round;stroke-miterlimit:10;stroke-dasharray:none;stroke-opacity:1" />
    <path
       inkscape:connector-curvature="0"
       id="path3988"
       d="m 271.65366,267.86087 0.90424,-15.56963"
       style="fill:none;stroke:#000000;stroke-width:0.94830716px;stroke-linecap:butt;stroke-linejoin:round;stroke-miterlimit:10;stroke-dasharray:none;stroke-opacity:1" />
    <path
       inkscape:connector-curvature="0"
       id="path3990"
       d="m 268.91892,256.90021 0.88223,-15.56964"
       style="fill:none;stroke:#000000;stroke-width:0.94830716px;stroke-linecap:butt;stroke-linejoin:round;stroke-miterlimit:10;stroke-dasharray:none;stroke-opacity:1" />
    <path
       inkscape:connector-curvature="0"
       id="path3992"
       d="m 266.07412,245.93954 0.90396,-15.56963"
       style="fill:none;stroke:#000000;stroke-width:0.94830716px;stroke-linecap:butt;stroke-linejoin:round;stroke-miterlimit:10;stroke-dasharray:none;stroke-opacity:1" />
    <path
       inkscape:connector-curvature="0"
       id="path3994"
       d="m 263.3614,234.97888 0.90424,-15.59182"
       style="fill:none;stroke:#000000;stroke-width:0.94830716px;stroke-linecap:butt;stroke-linejoin:round;stroke-miterlimit:10;stroke-dasharray:none;stroke-opacity:1" />
    <path
       inkscape:connector-curvature="0"
       id="path3996"
       d="m 260.62667,224.01833 0.88223,-15.56986"
       style="fill:none;stroke:#000000;stroke-width:0.94830716px;stroke-linecap:butt;stroke-linejoin:round;stroke-miterlimit:10;stroke-dasharray:none;stroke-opacity:1" />
    <path
       inkscape:connector-curvature="0"
       id="path3998"
       d="m 296.88291,356.25203 0.35278,-5.97662"
       style="fill:none;stroke:#000000;stroke-width:0.94830716px;stroke-linecap:butt;stroke-linejoin:round;stroke-miterlimit:10;stroke-dasharray:none;stroke-opacity:1" />
    <path
       inkscape:connector-curvature="0"
       id="path4000"
       d="m 257.78187,212.48427 0.30875,-4.25636"
       style="fill:none;stroke:#000000;stroke-width:0.94830716px;stroke-linecap:butt;stroke-linejoin:round;stroke-miterlimit:10;stroke-dasharray:none;stroke-opacity:1" />
    <path
       inkscape:connector-curvature="0"
       id="path4002"
       d="m 434.54188,207.30166 c 0,-1.52169 -0.90424,-2.75669 -2.0289,-2.75669 l -203.51117,0 c -1.12473,0 -2.05099,1.235 -2.05099,2.75669 0,1.52171 0.92626,2.75671 2.05099,2.75671 l 203.51117,0 c 1.12466,0 2.0289,-1.235 2.0289,-2.75671 z"
       style="fill:#5b9bd5;fill-opacity:1;fill-rule:evenodd;stroke:none" />
    <path
       inkscape:connector-curvature="0"
       id="path4004"
       d="m 432.51298,204.54497 c -1.12465,0 -2.02889,1.235 -2.02889,2.75669 0,1.52171 0.90424,2.75671 2.02889,2.75671 1.12466,0 2.0289,-1.235 2.0289,-2.75671 0,-1.52169 -0.90424,-2.75669 -2.0289,-2.75669 z"
       style="fill:#7bafde;fill-opacity:1;fill-rule:evenodd;stroke:none" />
    <path
       transform="matrix(0.28222222,0,0,0.28222222,225.84814,200.79584)"
       inkscape:connector-curvature="0"
       id="path4006"
       d="m 739.466,23.0521 c 0,-5.3918 -3.204,-9.7678 -7.189,-9.7678 l -721.1026,0 c -3.98526,0 -7.26726,4.376 -7.26726,9.7678 0,5.3919 3.282,9.7679 7.26726,9.7679 l 721.1026,0 c 3.985,0 7.189,-4.376 7.189,-9.7679 z"
       clip-path="url(#clipEmfPath1-35)"
       style="fill:none;stroke:#000000;stroke-width:3.36014342px;stroke-linecap:butt;stroke-linejoin:round;stroke-miterlimit:10;stroke-dasharray:none;stroke-opacity:1" />
    <path
       inkscape:connector-curvature="0"
       id="path4008"
       d="m 432.51298,204.54497 c -1.12465,0 -2.02889,1.235 -2.02889,2.75669 0,1.52171 0.90424,2.75671 2.02889,2.75671"
       style="fill:none;stroke:#000000;stroke-width:0.94830716px;stroke-linecap:butt;stroke-linejoin:round;stroke-miterlimit:10;stroke-dasharray:none;stroke-opacity:1" />
    <path
       inkscape:connector-curvature="0"
       id="path4010"
       d="m 362.16176,344.34309 c -11.44581,0 -20.70834,9.30656 -20.70834,20.75237 0,11.4681 9.26253,20.75265 20.70834,20.75265 11.4458,0 20.73035,-9.28455 20.73035,-20.75265 0,-11.44581 -9.28455,-20.75237 -20.73035,-20.75237 z"
       style="fill:#5b9bd5;fill-opacity:1;fill-rule:evenodd;stroke:none" />
    <path
       transform="matrix(0.28222222,0,0,0.28222222,225.84814,200.79584)"
       inkscape:connector-curvature="0"
       id="path4012"
       d="m 483.001,508.632 c -40.556,0 -73.376,32.976 -73.376,73.532 0,40.635 32.82,73.533 73.376,73.533 40.556,0 73.454,-32.898 73.454,-73.533 0,-40.556 -32.898,-73.532 -73.454,-73.532"
       clip-path="url(#clipEmfPath1-35)"
       style="fill:none;stroke:#000000;stroke-width:3.36014342px;stroke-linecap:butt;stroke-linejoin:round;stroke-miterlimit:10;stroke-dasharray:none;stroke-opacity:1" />
    <path
       inkscape:connector-curvature="0"
       id="path4014"
       d="m 367.52087,348.88603 c 0.24243,-0.13208 4.69731,1.30132 6.46176,3.683 1.76417,2.38195 3.04321,5.60182 2.80078,5.7339 -0.26473,0.13237 -2.91113,-3.41827 -4.34453,-4.91772 -1.4557,-1.49973 -5.22676,-4.25647 -4.91801,-4.49918 z"
       style="fill:#ffffff;fill-opacity:1;fill-rule:evenodd;stroke:none" />
    <path
       inkscape:connector-curvature="0"
       id="path4016"
       d="m 367.52087,348.88603 c 0.24243,-0.13208 4.69731,1.30132 6.46176,3.683 1.76417,2.38195 3.04321,5.60182 2.80078,5.7339 -0.26473,0.13237 -2.91113,-3.41827 -4.34453,-4.91772 -1.4557,-1.49973 -5.22676,-4.25647 -4.91801,-4.49918"
       style="fill:none;stroke:#000000;stroke-width:0.94830716px;stroke-linecap:butt;stroke-linejoin:round;stroke-miterlimit:10;stroke-dasharray:none;stroke-opacity:1" />
    <path
       inkscape:connector-curvature="0"
       id="path4018"
       d="m 298.77944,344.34309 c -11.4458,0 -20.73035,9.30656 -20.73035,20.75237 0,11.4681 9.28455,20.75265 20.73035,20.75265 11.44609,0 20.73064,-9.28455 20.73064,-20.75265 0,-11.44581 -9.28455,-20.75237 -20.73064,-20.75237 z"
       style="fill:#5b9bd5;fill-opacity:1;fill-rule:evenodd;stroke:none" />
    <path
       transform="matrix(0.28222222,0,0,0.28222222,225.84814,200.79584)"
       inkscape:connector-curvature="0"
       id="path4020"
       d="m 258.418,508.632 c -40.556,0 -73.454,32.976 -73.454,73.532 0,40.635 32.898,73.533 73.454,73.533 40.557,0 73.455,-32.898 73.455,-73.533 0,-40.556 -32.898,-73.532 -73.455,-73.532"
       clip-path="url(#clipEmfPath1-35)"
       style="fill:none;stroke:#000000;stroke-width:3.36014342px;stroke-linecap:butt;stroke-linejoin:round;stroke-miterlimit:10;stroke-dasharray:none;stroke-opacity:1" />
    <path
       inkscape:connector-curvature="0"
       id="path4022"
       d="m 304.11655,348.88603 c 0.26472,-0.13208 4.7196,1.30132 6.48377,3.683 1.76417,2.38195 3.04349,5.60182 2.77876,5.7339 -0.26472,0.13237 -2.91112,-3.41827 -4.34453,-4.91772 -1.4334,-1.49973 -5.20474,-4.25647 -4.918,-4.49918 z"
       style="fill:#ffffff;fill-opacity:1;fill-rule:evenodd;stroke:none" />
    <path
       inkscape:connector-curvature="0"
       id="path4024"
       d="m 304.11655,348.88603 c 0.26472,-0.13208 4.7196,1.30132 6.48377,3.683 1.76417,2.38195 3.04349,5.60182 2.77876,5.7339 -0.26472,0.13237 -2.91112,-3.41827 -4.34453,-4.91772 -1.4334,-1.49973 -5.20474,-4.25647 -4.918,-4.49918"
       style="fill:none;stroke:#000000;stroke-width:0.94830716px;stroke-linecap:butt;stroke-linejoin:round;stroke-miterlimit:10;stroke-dasharray:none;stroke-opacity:1" />
    <path
       inkscape:connector-curvature="0"
       id="path4026"
       d="m 354.31062,364.56629 0,3.77106 14.42324,0 0,-3.77106 -14.42324,0 z"
       style="fill:#ffffff;fill-opacity:1;fill-rule:evenodd;stroke:none" />
    <path
       inkscape:connector-curvature="0"
       id="path4028"
       d="m 354.31062,364.56629 0,3.77106 14.42324,0 0,-3.77106 z"
       style="fill:none;stroke:#000000;stroke-width:0.94830716px;stroke-linecap:butt;stroke-linejoin:miter;stroke-miterlimit:8;stroke-dasharray:none;stroke-opacity:1" />
    <text
       id="text4030"
       y="804.68439"
       x="707.20868"
       style="font-style:normal;font-variant:normal;font-weight:400;line-height:0%;font-family:Calibri;text-align:start;letter-spacing:0px;word-spacing:0px;text-anchor:start;fill:#000000;fill-opacity:1;stroke:none"
       xml:space="preserve"><tspan
         id="tspan4032"
         y="804.68439"
         x="707.20868"
         sodipodi:role="line"
         style="font-size:16.25px;line-height:1.25"> <tspan
   id="tspan4034"
   style="font-style:normal;font-variant:normal;font-weight:400;font-size:16.25px;font-family:Calibri;fill:#000000"
   dy="0"
   dx="0" /></tspan></text>
    <path
       inkscape:connector-curvature="0"
       id="path4036"
       d="m 356.40583,371.22674 m 0,0 m -65.32287,-7.27795 0,3.79335 14.44498,0 0,-3.79335 -14.44498,0 z"
       style="fill:#ffffff;fill-opacity:1;fill-rule:evenodd;stroke:none" />
    <path
       inkscape:connector-curvature="0"
       id="path4038"
       d="m 291.08296,363.94879 0,3.79335 14.44498,0 0,-3.79335 z"
       style="fill:none;stroke:#000000;stroke-width:0.94830716px;stroke-linecap:butt;stroke-linejoin:miter;stroke-miterlimit:8;stroke-dasharray:none;stroke-opacity:1" />
    <path
       inkscape:connector-curvature="0"
       id="path4040"
       d="m 300.01445,358.74405 -3.77105,0 0,14.42325 3.77105,0 z"
       style="fill:#ffffff;fill-opacity:1;fill-rule:evenodd;stroke:none" />
    <path
       inkscape:connector-curvature="0"
       id="path4042"
       d="m 300.01445,358.74405 -3.77105,0 0,14.42325 3.77105,0 z"
       style="fill:none;stroke:#000000;stroke-width:0.94830716px;stroke-linecap:butt;stroke-linejoin:miter;stroke-miterlimit:8;stroke-dasharray:none;stroke-opacity:1" />
    <path
       inkscape:connector-curvature="0"
       id="path4044"
       d="m 291.50178,364.27955 0,3.04349 13.56304,0 0,-3.04349 -13.56304,0 z"
       style="fill:#ffffff;fill-opacity:1;fill-rule:evenodd;stroke:none" />
    <path
       inkscape:connector-curvature="0"
       id="path4046"
       d="m 395.68326,358.4353 0,3.02147 27.47885,0 0,6.04266 -27.47885,0 0,3.02147 -9.15218,-6.04294 z"
       style="fill:#5b9bd5;fill-opacity:1;fill-rule:evenodd;stroke:none" />
    <path
       inkscape:connector-curvature="0"
       id="path4048"
       d="m 395.68326,358.4353 0,3.02147 27.47885,0 0,6.04266 -27.47885,0 0,3.02147 -9.15218,-6.04294 z"
       style="fill:none;stroke:#000000;stroke-width:0.94830716px;stroke-linecap:butt;stroke-linejoin:miter;stroke-miterlimit:8;stroke-dasharray:none;stroke-opacity:1" />
    <path
       inkscape:connector-curvature="0"
       id="path4050"
       d="m 263.42744,371.86597 0,-3.02119 -27.45666,0 0,-6.02065 27.45666,0 0,-3.02147 9.15247,6.04266 z"
       style="fill:#5b9bd5;fill-opacity:1;fill-rule:evenodd;stroke:none" />
    <path
       inkscape:connector-curvature="0"
       id="path4052"
       d="m 263.42744,371.86597 0,-3.02119 -27.45666,0 0,-6.02065 27.45666,0 0,-3.02147 9.15247,6.04266 z"
       style="fill:none;stroke:#000000;stroke-width:0.94830716px;stroke-linecap:butt;stroke-linejoin:miter;stroke-miterlimit:8;stroke-dasharray:none;stroke-opacity:1" />
    <text
       xml:space="preserve"
       style="font-size:17.5px;font-family:ABeeZee;-inkscape-font-specification:'ABeeZee, Normal';text-align:start;writing-mode:lr-tb;direction:ltr;text-anchor:start;fill:#000000;stroke-width:3.54331;stroke-linecap:round;stroke-linejoin:round"
       x="111.16418"
       y="185.32082"
       id="text1"><tspan
         sodipodi:role="line"
         id="tspan1"
         style="stroke-width:3.54331"
         x="111.16418"
         y="185.32082">https://openclipart.org/detail/232806/physic-diagram-oppositely-charged-pith-balls-attract</tspan></text>
  </g>
</svg>
