<?xml version="1.0" encoding="UTF-8" standalone="no"?>
<!-- Created with Inkscape (http://www.inkscape.org/) -->

<svg
   width="245.87849mm"
   height="128.13858mm"
   viewBox="0 0 245.87849 128.13858"
   version="1.1"
   id="svg4488"
   inkscape:version="1.2.2 (b0a8486541, 2022-12-01)"
   sodipodi:docname="01-volt-divider.svg"
   xml:space="preserve"
   xmlns:inkscape="http://www.inkscape.org/namespaces/inkscape"
   xmlns:sodipodi="http://sodipodi.sourceforge.net/DTD/sodipodi-0.dtd"
   xmlns:xlink="http://www.w3.org/1999/xlink"
   xmlns="http://www.w3.org/2000/svg"
   xmlns:svg="http://www.w3.org/2000/svg"
   xmlns:rdf="http://www.w3.org/1999/02/22-rdf-syntax-ns#"
   xmlns:cc="http://creativecommons.org/ns#"
   xmlns:dc="http://purl.org/dc/elements/1.1/"><defs
     id="defs4482"><clipPath
       clipPathUnits="userSpaceOnUse"
       id="clipPath18"><path
         d="M 0,0.1 H 22.6 V 70.9 H 0 Z"
         id="path16"
         inkscape:connector-curvature="0"
         style="clip-rule:evenodd" /></clipPath><clipPath
       clipPathUnits="userSpaceOnUse"
       id="clipPath28"><path
         d="M 5.6,44.1 H 19.8 V 61.2 H 5.6 Z"
         id="path26"
         inkscape:connector-curvature="0" /></clipPath><clipPath
       clipPathUnits="userSpaceOnUse"
       id="clipPath42"><path
         d="m 5.6,61.1 h 14.2 v 7.2 H 5.6 Z"
         id="path40"
         inkscape:connector-curvature="0" /></clipPath><clipPath
       clipPathUnits="userSpaceOnUse"
       id="clipPath56"><path
         d="m 2.8,41.2 h 17 v 3 h -17 z"
         id="path54"
         inkscape:connector-curvature="0" /></clipPath><clipPath
       clipPathUnits="userSpaceOnUse"
       id="clipPath78"><path
         d="m 8.5,44.1 h 2.9 v 5.8 H 8.5 Z"
         id="path76"
         inkscape:connector-curvature="0" /></clipPath><clipPath
       clipPathUnits="userSpaceOnUse"
       id="clipPath92"><path
         d="m 7.1,44.1 h 1.4 v 5.8 H 7.1 Z"
         id="path90"
         inkscape:connector-curvature="0" /></clipPath><clipPath
       clipPathUnits="userSpaceOnUse"
       id="clipPath106"><path
         d="m 11.3,44.1 h 2.9 v 5.8 h -2.9 z"
         id="path104"
         inkscape:connector-curvature="0" /></clipPath><clipPath
       clipPathUnits="userSpaceOnUse"
       id="clipPath120"><path
         d="m 14.1,44.1 h 4.3 v 5.8 h -4.3 z"
         id="path118"
         inkscape:connector-curvature="0" /></clipPath><clipPath
       clipPathUnits="userSpaceOnUse"
       id="clipPath18-3"><path
         d="M 0,0.1 H 22.6 V 70.9 H 0 Z"
         id="path16-5"
         inkscape:connector-curvature="0"
         style="clip-rule:evenodd" /></clipPath><clipPath
       clipPathUnits="userSpaceOnUse"
       id="clipPath28-6"><path
         d="M 5.6,44.1 H 19.8 V 61.2 H 5.6 Z"
         id="path26-2"
         inkscape:connector-curvature="0" /></clipPath><clipPath
       clipPathUnits="userSpaceOnUse"
       id="clipPath42-9"><path
         d="m 5.6,61.1 h 14.2 v 7.2 H 5.6 Z"
         id="path40-1"
         inkscape:connector-curvature="0" /></clipPath><clipPath
       clipPathUnits="userSpaceOnUse"
       id="clipPath56-2"><path
         d="m 2.8,41.2 h 17 v 3 h -17 z"
         id="path54-7"
         inkscape:connector-curvature="0" /></clipPath><clipPath
       clipPathUnits="userSpaceOnUse"
       id="clipPath78-0"><path
         d="m 8.5,44.1 h 2.9 v 5.8 H 8.5 Z"
         id="path76-9"
         inkscape:connector-curvature="0" /></clipPath><clipPath
       clipPathUnits="userSpaceOnUse"
       id="clipPath92-3"><path
         d="m 7.1,44.1 h 1.4 v 5.8 H 7.1 Z"
         id="path90-6"
         inkscape:connector-curvature="0" /></clipPath><clipPath
       clipPathUnits="userSpaceOnUse"
       id="clipPath106-06"><path
         d="m 11.3,44.1 h 2.9 v 5.8 h -2.9 z"
         id="path104-2"
         inkscape:connector-curvature="0" /></clipPath><clipPath
       clipPathUnits="userSpaceOnUse"
       id="clipPath120-6"><path
         d="m 14.1,44.1 h 4.3 v 5.8 h -4.3 z"
         id="path118-18"
         inkscape:connector-curvature="0" /></clipPath><clipPath
       clipPathUnits="userSpaceOnUse"
       id="clipPath18-5"><path
         d="M 0,0.1 H 22.6 V 70.9 H 0 Z"
         id="path16-1"
         inkscape:connector-curvature="0"
         style="clip-rule:evenodd" /></clipPath><clipPath
       clipPathUnits="userSpaceOnUse"
       id="clipPath28-7"><path
         d="M 5.6,44.1 H 19.8 V 61.2 H 5.6 Z"
         id="path26-4"
         inkscape:connector-curvature="0" /></clipPath><clipPath
       clipPathUnits="userSpaceOnUse"
       id="clipPath42-1"><path
         d="m 5.6,61.1 h 14.2 v 7.2 H 5.6 Z"
         id="path40-7"
         inkscape:connector-curvature="0" /></clipPath><clipPath
       clipPathUnits="userSpaceOnUse"
       id="clipPath56-1"><path
         d="m 2.8,41.2 h 17 v 3 h -17 z"
         id="path54-1"
         inkscape:connector-curvature="0" /></clipPath><clipPath
       clipPathUnits="userSpaceOnUse"
       id="clipPath78-1"><path
         d="m 8.5,44.1 h 2.9 v 5.8 H 8.5 Z"
         id="path76-7"
         inkscape:connector-curvature="0" /></clipPath><clipPath
       clipPathUnits="userSpaceOnUse"
       id="clipPath92-0"><path
         d="m 7.1,44.1 h 1.4 v 5.8 H 7.1 Z"
         id="path90-4"
         inkscape:connector-curvature="0" /></clipPath><clipPath
       clipPathUnits="userSpaceOnUse"
       id="clipPath106-0"><path
         d="m 11.3,44.1 h 2.9 v 5.8 h -2.9 z"
         id="path104-8"
         inkscape:connector-curvature="0" /></clipPath><clipPath
       clipPathUnits="userSpaceOnUse"
       id="clipPath120-5"><path
         d="m 14.1,44.1 h 4.3 v 5.8 h -4.3 z"
         id="path118-1"
         inkscape:connector-curvature="0" /></clipPath><clipPath
       clipPathUnits="userSpaceOnUse"
       id="clipPath28-7-2"><path
         d="M 5.6,44.1 H 19.8 V 61.2 H 5.6 Z"
         id="path26-4-1"
         inkscape:connector-curvature="0" /></clipPath><clipPath
       clipPathUnits="userSpaceOnUse"
       id="clipPath42-1-9"><path
         d="m 5.6,61.1 h 14.2 v 7.2 H 5.6 Z"
         id="path40-7-6"
         inkscape:connector-curvature="0" /></clipPath><clipPath
       clipPathUnits="userSpaceOnUse"
       id="clipPath56-1-4"><path
         d="m 2.8,41.2 h 17 v 3 h -17 z"
         id="path54-1-8"
         inkscape:connector-curvature="0" /></clipPath><clipPath
       clipPathUnits="userSpaceOnUse"
       id="clipPath78-1-0"><path
         d="m 8.5,44.1 h 2.9 v 5.8 H 8.5 Z"
         id="path76-7-8"
         inkscape:connector-curvature="0" /></clipPath><clipPath
       clipPathUnits="userSpaceOnUse"
       id="clipPath92-0-1"><path
         d="m 7.1,44.1 h 1.4 v 5.8 H 7.1 Z"
         id="path90-4-0"
         inkscape:connector-curvature="0" /></clipPath><clipPath
       clipPathUnits="userSpaceOnUse"
       id="clipPath106-0-2"><path
         d="m 11.3,44.1 h 2.9 v 5.8 h -2.9 z"
         id="path104-8-2"
         inkscape:connector-curvature="0" /></clipPath><clipPath
       clipPathUnits="userSpaceOnUse"
       id="clipPath120-5-9"><path
         d="m 14.1,44.1 h 4.3 v 5.8 h -4.3 z"
         id="path118-1-7"
         inkscape:connector-curvature="0" /></clipPath><clipPath
       clipPathUnits="userSpaceOnUse"
       id="clipPath2977"><g
         id="g2981"
         transform="matrix(0.75000002,0,0,-0.75000002,87.062747,510.64981)"><path
           d="m -116.08366,680.73306 h 30.133333 v -94.4 h -30.133333 z"
           id="path2979"
           inkscape:connector-curvature="0"
           style="clip-rule:evenodd;stroke-width:1.33333" /></g></clipPath><clipPath
       clipPathUnits="userSpaceOnUse"
       id="clipPath2983"><g
         id="g2987"
         transform="matrix(0.75000002,0,0,-0.75000002,87.062747,510.64981)"><path
           d="m -116.08366,680.73306 h 30.133333 v -94.4 h -30.133333 z"
           id="path2985"
           inkscape:connector-curvature="0"
           style="clip-rule:evenodd;stroke-width:1.33333" /></g></clipPath><clipPath
       clipPathUnits="userSpaceOnUse"
       id="clipPath2989"><g
         id="g2993"
         transform="matrix(0.75000002,0,0,-0.75000002,86.940767,510.64876)"><path
           d="m -116.08366,680.73306 h 30.133333 v -94.4 h -30.133333 z"
           id="path2991"
           inkscape:connector-curvature="0"
           style="clip-rule:evenodd;stroke-width:1.33333" /></g></clipPath><clipPath
       clipPathUnits="userSpaceOnUse"
       id="clipPath3110"><g
         id="g3120"><g
           id="g3118"><g
             id="g3116"><g
               id="g3114"><path
                 d="m -116.08366,680.73306 h 30.133333 v -94.4 h -30.133333 z"
                 id="path3112"
                 inkscape:connector-curvature="0"
                 style="clip-rule:evenodd;stroke-width:1.33333" /></g></g></g></g></clipPath><clipPath
       clipPathUnits="userSpaceOnUse"
       id="clipPath3133"><g
         id="g3143"><g
           id="g3141"><g
             id="g3139"><g
               id="g3137"><path
                 d="m -116.08366,680.73306 h 30.133333 v -94.4 h -30.133333 z"
                 id="path3135"
                 inkscape:connector-curvature="0"
                 style="clip-rule:evenodd;stroke-width:1.33333" /></g></g></g></g></clipPath><clipPath
       clipPathUnits="userSpaceOnUse"
       id="clipPath3192"><g
         clip-path="url(#clipPath120-5-9)"
         id="g3196"
         style="opacity:0.5"
         transform="matrix(1.3333333,0,0,-1.3333333,-116.08366,680.86639)"><path
           d="m 16.3,44.1 h -2.2 v 5.7 h 4.3 v -5.7 z"
           style="fill:#b2b2b2;fill-opacity:1;fill-rule:evenodd;stroke:none"
           id="path3194"
           inkscape:connector-curvature="0" /></g></clipPath><clipPath
       clipPathUnits="userSpaceOnUse"
       id="clipPath3208"><g
         id="g3216"
         transform="matrix(0.75000002,0,0,-0.75000002,87.062747,510.64981)"><g
           id="g3214"><g
             id="g3212"><path
               d="m -116.08366,680.73306 h 30.133333 v -94.4 h -30.133333 z"
               id="path3210"
               inkscape:connector-curvature="0"
               style="clip-rule:evenodd;stroke-width:1.33333" /></g></g></g></clipPath><linearGradient
       inkscape:collect="always"
       xlink:href="#linearGradient3309"
       id="linearGradient83655"
       gradientUnits="userSpaceOnUse"
       gradientTransform="matrix(4.9661891,0,0,-4.9661891,-1206.3775,3750.0545)"
       spreadMethod="reflect"
       x1="339.89999"
       y1="561.78998"
       x2="339.89999"
       y2="577.81" /><linearGradient
       inkscape:collect="always"
       x1="339.89999"
       y1="561.78998"
       gradientTransform="matrix(4.9661891,0,0,-4.9661891,-756.62731,2995.9847)"
       x2="339.89999"
       gradientUnits="userSpaceOnUse"
       spreadMethod="reflect"
       y2="577.81"
       id="linearGradient3309"><stop
         offset="0"
         style="stop-color:#323232"
         id="stop4837" /><stop
         offset="1"
         style="stop-color:#ffffff;stop-opacity:.42268"
         id="stop4839" /></linearGradient><filter
       inkscape:collect="always"
       x="-0.092411078"
       y="-1.0987135"
       width="1.1848222"
       height="3.1974269"
       id="filter5305"><feGaussianBlur
         inkscape:collect="always"
         stdDeviation="0.90293322"
         id="feGaussianBlur5307" /></filter><filter
       inkscape:collect="always"
       x="-0.27838609"
       y="-0.29202805"
       width="1.5567722"
       height="1.5840561"
       id="filter5531"><feGaussianBlur
         inkscape:collect="always"
         stdDeviation="1.2634047"
         id="feGaussianBlur5533" /></filter><inkscape:path-effect
       effect="spiro"
       id="path-effect83599"
       is_visible="true"
       lpeversion="0" /><inkscape:path-effect
       is_visible="true"
       id="path-effect83603"
       effect="spiro"
       lpeversion="0" /><inkscape:path-effect
       effect="spiro"
       id="path-effect83607"
       is_visible="true"
       lpeversion="0" /><inkscape:path-effect
       is_visible="true"
       id="path-effect83611"
       effect="spiro"
       lpeversion="0" /><inkscape:path-effect
       is_visible="true"
       id="path-effect83615"
       effect="spiro"
       lpeversion="0" /><inkscape:path-effect
       effect="skeletal"
       id="path-effect3778"
       is_visible="true"
       pattern="M 0,0 H 1"
       copytype="single_stretched"
       prop_scale="1"
       scale_y_rel="false"
       spacing="0"
       normal_offset="0"
       tang_offset="0"
       prop_units="false"
       vertical_pattern="false"
       fuse_tolerance="0"
       lpeversion="0"
       hide_knot="false" /><inkscape:path-effect
       effect="skeletal"
       id="path-effect3774"
       is_visible="true"
       pattern="M 0,0 H 1"
       copytype="single_stretched"
       prop_scale="1"
       scale_y_rel="false"
       spacing="0"
       normal_offset="0"
       tang_offset="0"
       prop_units="false"
       vertical_pattern="false"
       fuse_tolerance="0"
       lpeversion="0"
       hide_knot="false" /></defs><sodipodi:namedview
     id="base"
     pagecolor="#ffffff"
     bordercolor="#666666"
     borderopacity="1.0"
     inkscape:pageopacity="0.0"
     inkscape:pageshadow="2"
     inkscape:zoom="0.35000001"
     inkscape:cx="324.28571"
     inkscape:cy="280"
     inkscape:document-units="mm"
     inkscape:current-layer="layer1"
     showgrid="false"
     inkscape:showpageshadow="0"
     inkscape:pagecheckerboard="1"
     inkscape:deskcolor="#d1d1d1"
     inkscape:window-width="1440"
     inkscape:window-height="850"
     inkscape:window-x="0"
     inkscape:window-y="27"
     inkscape:window-maximized="1" /><metadata
     id="metadata4485"><rdf:RDF><cc:Work
         rdf:about=""><dc:format>image/svg+xml</dc:format><dc:type
           rdf:resource="http://purl.org/dc/dcmitype/StillImage" /></cc:Work></rdf:RDF></metadata><g
     inkscape:label="Layer 1"
     inkscape:groupmode="layer"
     id="layer1"
     transform="translate(27.763051,-182.6515)"><g
       id="g10"
       inkscape:label="led_rot"
       transform="matrix(0.26014159,0,0,-0.26014159,-136.76158,440.2013)"
       style="display:inline"><text
         xml:space="preserve"
         style="font-size:12px;line-height:1.25;font-family:'Encode Sans';-inkscape-font-specification:'Encode Sans';text-align:center;text-decoration:none;text-decoration-line:none;text-decoration-color:#000000;letter-spacing:0px;word-spacing:0px;text-anchor:middle;fill:#000000;stroke:#000000;stroke-width:0;stroke-linecap:butt;stroke-linejoin:miter;stroke-opacity:1;stop-color:#000000"
         x="-7.8701429"
         y="-81.613258"
         id="text169"
         transform="scale(1,-1)"
         inkscape:label="text169"><tspan
           sodipodi:role="line"
           id="tspan167"
           style="stroke-width:0"
           x="-7.8701506"
           y="-81.613258">https://openclipart.org/detail/308631/red-led-5-mm</tspan></text></g><text
       xml:space="preserve"
       style="font-size:1.87158px;line-height:1.25;font-family:'Encode Sans';-inkscape-font-specification:'Encode Sans';text-align:center;text-decoration:none;text-decoration-line:none;text-decoration-color:#000000;letter-spacing:0px;word-spacing:0px;text-anchor:middle;fill:#000000;stroke:#000000;stroke-width:0;stroke-linecap:butt;stroke-linejoin:miter;stroke-opacity:1;stop-color:#000000"
       x="-138.03465"
       y="412.703"
       id="text1409"><tspan
         sodipodi:role="line"
         id="tspan1407"
         x="-138.03465"
         y="412.703"
         style="stroke-width:0">https://openclipart.org/detail/278039/arduino-fixed</tspan></text><g
       id="g4254"
       transform="matrix(0,0.09887857,-0.09887857,0,296.27513,218.95007)"><path
         d="m 169.75619,1377.4366 c -16.70496,-54.1829 15.68519,-126.1987 -5.95141,-228.125 -42.66268,-200.97658 32.5924,-268.26431 105.21808,-268.80753 h 226.49277 219.46965 c 230.01051,73.06172 159.91411,199.23013 168.43179,444.30143"
         style="fill:none;stroke:#a7a7a7;stroke-width:24.8309;stroke-linecap:round;stroke-opacity:1"
         id="path4741"
         inkscape:connector-curvature="0"
         sodipodi:nodetypes="cscccc" /><path
         d="m 386.42833,931.95379 c -36.30284,0 -65.80201,-23.14245 -65.80201,-51.52422 0,-28.38673 29.49917,-51.37025 65.80201,-51.37025 14.55093,0 27.90998,3.82893 38.78593,10.08633 h 140.44385 c 10.9256,-6.27727 24.384,-10.08633 38.9349,-10.08633 36.3525,0 65.802,22.98352 65.802,51.37025 0,28.38177 -29.4495,51.52422 -65.802,51.52422 -14.5509,0 -28.0093,-3.80907 -38.9349,-10.08633 H 425.21426 c -10.87595,6.25739 -24.235,10.08633 -38.78593,10.08633 z"
         style="fill:#979fd5;fill-opacity:1"
         id="rect4732"
         inkscape:connector-curvature="0" /><path
         d="m 386.42833,931.8365 c -36.30284,0 -65.80201,-23.14245 -65.80201,-51.52422 0,-28.38673 29.49917,-51.37026 65.80201,-51.37026 14.55093,0 27.90998,3.82893 38.78593,10.08633 h 140.44385 c 10.9256,-6.27726 24.384,-10.08633 38.9349,-10.08633 36.3525,0 65.802,22.98353 65.802,51.37026 0,28.38177 -29.4495,51.52422 -65.802,51.52422 -14.5509,0 -28.0093,-3.80907 -38.9349,-10.08633 H 425.21426 c -10.87595,6.25739 -24.235,10.08633 -38.78593,10.08633 z"
         style="opacity:0.44886;fill:url(#linearGradient83655)"
         id="path4833"
         inkscape:connector-curvature="0" /><path
         d="m 225.34,32.913 c -4.27,1.321 -19.68,1.171 -23.45,-0.103 5.91,-1.433 17.19,-1.105 23.45,0.103 z"
         style="opacity:0.40909;fill:#ffffff;filter:url(#filter5305)"
         sodipodi:nodetypes="ccc"
         id="path5214"
         inkscape:connector-curvature="0"
         transform="matrix(4.9661891,0,0,-4.9661891,-568.66916,1071.1114)" /><path
         transform="matrix(-7.033117,0,0,2.6877015,3189.1965,-717.36225)"
         style="opacity:0.11364;fill:#2e3436;filter:url(#filter5531)"
         sodipodi:nodetypes="ccsc"
         d="m 360.07,587.13 c 0.21,-6.32 8.69,-14.19 10.89,-8.21 0.09,1.31 -2.93,0.14 -5.55,2 -2.66,1.88 -4.93,6.77 -5.34,6.21 z"
         id="path5309"
         inkscape:connector-curvature="0" /><path
         style="fill:none;fill-opacity:1;fill-rule:evenodd;stroke:#800000;stroke-width:15;stroke-linecap:butt;stroke-linejoin:miter;stroke-miterlimit:4;stroke-dasharray:none;stroke-opacity:1"
         d="m 399.53552,831.43186 v 98.57143"
         id="path83597"
         inkscape:path-effect="#path-effect83599"
         inkscape:original-d="m 399.53552,831.43186 v 98.57143"
         inkscape:connector-curvature="0" /><path
         inkscape:connector-curvature="0"
         inkscape:original-d="m 438.82124,839.28901 v 81.42857"
         inkscape:path-effect="#path-effect83603"
         id="path83601"
         d="m 438.82124,839.28901 v 81.42857"
         style="fill:none;fill-opacity:1;fill-rule:evenodd;stroke:#000000;stroke-width:13.6334;stroke-linecap:butt;stroke-linejoin:miter;stroke-miterlimit:4;stroke-dasharray:none;stroke-opacity:1" /><path
         style="fill:none;fill-opacity:1;fill-rule:evenodd;stroke:#000000;stroke-width:13.6334;stroke-linecap:butt;stroke-linejoin:miter;stroke-miterlimit:4;stroke-dasharray:none;stroke-opacity:1"
         d="m 472.03553,839.28901 v 81.42857"
         id="path83605"
         inkscape:path-effect="#path-effect83607"
         inkscape:original-d="m 472.03553,839.28901 v 81.42857"
         inkscape:connector-curvature="0" /><path
         inkscape:connector-curvature="0"
         inkscape:original-d="m 505.24982,839.28901 v 81.42857"
         inkscape:path-effect="#path-effect83611"
         id="path83609"
         d="m 505.24982,839.28901 v 81.42857"
         style="fill:none;fill-opacity:1;fill-rule:evenodd;stroke:#ff0000;stroke-width:13.6334;stroke-linecap:butt;stroke-linejoin:miter;stroke-miterlimit:4;stroke-dasharray:none;stroke-opacity:1" /><path
         inkscape:connector-curvature="0"
         inkscape:original-d="m 615.96411,831.43186 v 98.57143"
         inkscape:path-effect="#path-effect83615"
         id="path83613"
         d="m 615.96411,831.43186 v 98.57143"
         style="fill:none;fill-opacity:1;fill-rule:evenodd;stroke:#800000;stroke-width:15;stroke-linecap:butt;stroke-linejoin:miter;stroke-miterlimit:4;stroke-dasharray:none;stroke-opacity:1" /></g><text
       xml:space="preserve"
       style="font-size:3.1217px;line-height:1.25;font-family:'Encode Sans';-inkscape-font-specification:'Encode Sans';text-align:center;text-decoration:none;text-decoration-line:none;text-decoration-color:#000000;letter-spacing:0px;word-spacing:0px;text-anchor:middle;fill:#000000;stroke:#000000;stroke-width:0;stroke-linecap:butt;stroke-linejoin:miter;stroke-opacity:1;stop-color:#000000"
       x="-148.9984"
       y="424.94348"
       id="text480"><tspan
         sodipodi:role="line"
         id="tspan478"
         x="-148.9984"
         y="424.94348"
         style="stroke-width:0">https://openclipart.org/detail/250259/resistor-color-code-table</tspan></text><text
       xml:space="preserve"
       style="font-size:4.23333px;line-height:1.25;font-family:ABeeZee;-inkscape-font-specification:ABeeZee;text-align:center;text-decoration:none;text-decoration-line:none;text-decoration-color:#000000;letter-spacing:0px;word-spacing:0px;text-anchor:middle;fill:#000000;stroke:#000000;stroke-width:0;stroke-linecap:butt;stroke-linejoin:miter;stroke-opacity:1;stop-color:#000000"
       x="209.09094"
       y="117.14643"
       id="text175"><tspan
         sodipodi:role="line"
         id="tspan173"
         x="209.09094"
         y="117.14643"
         style="stroke-width:0">https://commons.wikimedia.org/wiki/File:LDR_vector.svg</tspan></text><g
       id="g5448"
       transform="matrix(0,1.0444614,-1.0444614,0,438.87999,-29.40676)"><path
         style="color:#000000;overflow:visible;fill:#f2f2f2;stroke:#808080;stroke-width:2.2;stroke-linecap:round;stroke-linejoin:round;stroke-dasharray:none"
         d="m 207.49801,227.39238 v 39.51284"
         id="path5288" /><path
         style="color:#000000;overflow:visible;fill:#f2f2f2;stroke:#808080;stroke-width:2.2;stroke-linecap:round;stroke-linejoin:round;stroke-dasharray:none"
         d="m 232.69079,227.39238 v 39.51284"
         id="path5288-7" /><g
         id="g3873"
         transform="matrix(0.06155834,0,0,0.06155834,217.44996,223.34779)"><circle
           transform="matrix(1.3,0,0,1.3,-13.064924,-652.69774)"
           id="path3787"
           style="display:inline;fill:#800000;fill-opacity:1;fill-rule:evenodd;stroke:none"
           cx="50"
           cy="552.36218"
           r="200" /><g
           style="display:inline;fill:#f2f2f2;stroke:none"
           transform="matrix(1.1757794,0,0,1.1758654,639.82492,-584.12718)"
           id="g3848"><path
             inkscape:connector-curvature="0"
             style="fill:#f2f2f2;fill-opacity:1;fill-rule:evenodd;stroke:none"
             d="m -637.625,714.28125 c 1.22393,-1.23187 2.56161,-2.36413 4,-3.34375 1.43839,-0.97962 2.97752,-1.80978 4.59375,-2.5 1.61623,-0.69022 3.30504,-1.23007 5.0625,-1.59375 1.75746,-0.36368 3.57542,-0.5625 5.4375,-0.5625 H -616.5 l 222.9375,-0.625 h 0.0312 c 1.24659,0 2.45194,-0.13516 3.625,-0.375 1.17306,-0.23984 2.29898,-0.57497 3.375,-1.03125 1.07602,-0.45628 2.10703,-1.03819 3.0625,-1.6875 0.95547,-0.64931 1.84485,-1.36857 2.65625,-2.1875 0.8114,-0.81893 1.54368,-1.72236 2.1875,-2.6875 0.64382,-0.96514 1.20352,-2.0058 1.65625,-3.09375 0.45273,-1.08795 0.79313,-2.21889 1.03125,-3.40625 0.23812,-1.18736 0.375,-2.42415 0.375,-3.6875 0,-1.26335 -0.13688,-2.49929 -0.375,-3.6875 -0.23812,-1.18821 -0.57852,-2.31683 -1.03125,-3.40625 -0.45273,-1.08942 -1.01243,-2.12678 -1.65625,-3.09375 -0.64382,-0.96697 -1.3761,-1.86662 -2.1875,-2.6875 -0.8114,-0.82088 -1.70078,-1.56761 -2.65625,-2.21875 -0.95547,-0.65114 -1.98648,-1.22976 -3.0625,-1.6875 -1.07602,-0.45774 -2.20194,-0.79055 -3.375,-1.03125 -1.17306,-0.2407 -2.37841,-0.375 -3.625,-0.375 l -225,0.65625 h -0.0312 c -1.86623,-7.5e-4 -3.67692,-0.19755 -5.4375,-0.5625 -1.76058,-0.36495 -3.47528,-0.90192 -5.09375,-1.59375 -1.61847,-0.69183 -3.15386,-1.51861 -4.59375,-2.5 -1.43989,-0.98139 -2.77515,-2.11012 -4,-3.34375 -1.22485,-1.23363 -2.33916,-2.58269 -3.3125,-4.03125 -0.97334,-1.44856 -1.81464,-2.99884 -2.5,-4.625 -0.68536,-1.62616 -1.20159,-3.32731 -1.5625,-5.09375 -0.36091,-1.76644 -0.5625,-3.59934 -0.5625,-5.46875 0,-1.86941 0.2016,-3.70215 0.5625,-5.46875 0.3609,-1.7666 0.87731,-3.46736 1.5625,-5.09375 0.68519,-1.62639 1.52713,-3.1762 2.5,-4.625 0.97287,-1.4488 2.08857,-2.79743 3.3125,-4.03125 1.22393,-1.23382 2.56161,-2.3623 4,-3.34375 1.43839,-0.98145 2.97752,-1.80831 4.59375,-2.5 1.61623,-0.69169 3.30504,-1.22921 5.0625,-1.59375 1.75746,-0.36454 3.57542,-0.5625 5.4375,-0.5625 h 0.0625 0.28125 l 224.75,-0.625 c 1.2466,0 2.45108,-0.13545 3.625,-0.375 1.17392,-0.23955 2.32876,-0.57498 3.40625,-1.03125 1.07749,-0.45627 2.07395,-1.03732 3.03125,-1.6875 0.9573,-0.65018 1.87415,-1.36623 2.6875,-2.1875 0.81335,-0.82127 1.54185,-1.74921 2.1875,-2.71875 0.64565,-0.96954 1.20206,-1.99876 1.65625,-3.09375 0.45419,-1.09499 0.79228,-2.23988 1.03125,-3.4375 0.23897,-1.19762 0.375,-2.44132 0.375,-3.71875 0,-1.27743 -0.13603,-2.52028 -0.375,-3.71875 -0.23897,-1.19847 -0.57706,-2.34105 -1.03125,-3.4375 -0.45419,-1.09645 -1.0106,-2.15363 -1.65625,-3.125 -0.64565,-0.97137 -1.37415,-1.86428 -2.1875,-2.6875 -0.81335,-0.82322 -1.7302,-1.56674 -2.6875,-2.21875 -0.9573,-0.65201 -1.95376,-1.22976 -3.03125,-1.6875 -1.07749,-0.45774 -2.23233,-0.79085 -3.40625,-1.03125 -1.17392,-0.2404 -2.3784,-0.375 -3.625,-0.375 l -224.75,-0.625 h -0.28125 -0.0625 c -1.86208,0 -3.68004,-0.19882 -5.4375,-0.5625 -1.75746,-0.36368 -3.44627,-0.90353 -5.0625,-1.59375 -1.61623,-0.69022 -3.15536,-1.52038 -4.59375,-2.5 -1.43839,-0.97962 -2.77607,-2.11188 -4,-3.34375 -1.22393,-1.23187 -2.33963,-2.55303 -3.3125,-4 -0.97287,-1.44697 -1.81481,-3.00007 -2.5,-4.625 -0.68519,-1.62493 -1.2016,-3.32801 -1.5625,-5.09375 -0.3609,-1.76574 -0.5625,-3.59934 -0.5625,-5.46875 0,-1.86941 0.20159,-3.70231 0.5625,-5.46875 0.36091,-1.76644 0.87714,-3.46759 1.5625,-5.09375 0.68536,-1.62616 1.52666,-3.17645 2.5,-4.625 0.97334,-1.44855 2.08765,-2.79762 3.3125,-4.03125 1.22485,-1.23363 2.56011,-2.36236 4,-3.34375 1.43989,-0.98139 2.97528,-1.80817 4.59375,-2.5 1.61847,-0.69183 3.33317,-1.2288 5.09375,-1.59375 1.76058,-0.36495 3.57127,-0.56175 5.4375,-0.5625 h 0.0312 l 225,0.625 c 1.24659,0 2.45194,-0.13516 3.625,-0.375 1.17306,-0.23984 2.29898,-0.57497 3.375,-1.03125 1.07602,-0.45628 2.10703,-1.03819 3.0625,-1.6875 0.95547,-0.64931 1.84485,-1.36857 2.65625,-2.1875 0.8114,-0.81893 1.54368,-1.72236 2.1875,-2.6875 0.64382,-0.96514 1.20352,-2.0058 1.65625,-3.09375 0.45273,-1.08795 0.79313,-2.21889 1.03125,-3.40625 0.23812,-1.18736 0.375,-2.42415 0.375,-3.6875 0,-1.26335 -0.13688,-2.49929 -0.375,-3.6875 -0.23812,-1.18821 -0.57852,-2.31683 -1.03125,-3.40625 -0.45273,-1.08942 -1.01243,-2.12678 -1.65625,-3.09375 -0.64382,-0.96697 -1.3761,-1.86662 -2.1875,-2.6875 -0.8114,-0.82088 -1.70078,-1.56761 -2.65625,-2.21875 -0.95547,-0.65114 -1.98648,-1.22976 -3.0625,-1.6875 -1.07602,-0.45774 -2.20194,-0.79055 -3.375,-1.03125 -1.17306,-0.2407 -2.37841,-0.375 -3.625,-0.375 h -0.0312 L -616.46875,487 l -0.0312,0.0312 h -2.03125 c -1.86208,0 -3.68004,-0.19796 -5.4375,-0.5625 -1.75746,-0.36454 -3.44627,-0.90206 -5.0625,-1.59375 -1.61623,-0.69169 -3.15536,-1.51855 -4.59375,-2.5 -1.43839,-0.98145 -2.77607,-2.10993 -4,-3.34375 -1.22393,-1.23382 -2.33963,-2.58245 -3.3125,-4.03125 -0.97287,-1.4488 -1.81481,-2.99861 -2.5,-4.625 -0.68519,-1.62639 -1.2016,-3.32715 -1.5625,-5.09375 -0.3609,-1.7666 -0.5625,-3.59934 -0.5625,-5.46875 0,-1.86941 0.20158,-3.70233 0.5625,-5.46875 0.36092,-1.76642 0.87712,-3.46763 1.5625,-5.09375 0.68538,-1.62612 1.52664,-3.17649 2.5,-4.625 0.97336,-1.44851 2.08764,-2.79765 3.3125,-4.03125 1.22486,-1.2336 2.5601,-2.33112 4,-3.3125 1.4399,-0.98138 2.97529,-1.8394 4.59375,-2.53125 1.61846,-0.69185 3.3332,-1.22873 5.09375,-1.59375 1.76055,-0.36502 3.57133,-0.56162 5.4375,-0.5625 h 0.0312 l 224.96875,0.625 h 0.0312 c 1.24477,-0.002 2.45293,-0.13372 3.625,-0.375 1.17207,-0.24128 2.29932,-0.60541 3.375,-1.0625 1.07568,-0.45709 2.10689,-1.00667 3.0625,-1.65625 0.95561,-0.64958 1.8444,-1.40002 2.65625,-2.21875 0.81185,-0.81873 1.54308,-1.6917 2.1875,-2.65625 0.64442,-0.96455 1.20295,-2.00671 1.65625,-3.09375 0.4533,-1.08704 0.79276,-2.22006 1.03125,-3.40625 0.23849,-1.18619 0.375,-2.42548 0.375,-3.6875 0,-1.26335 -0.13603,-2.50014 -0.375,-3.6875 -0.23897,-1.18736 -0.57706,-2.3183 -1.03125,-3.40625 -0.45419,-1.08795 -1.0106,-2.12861 -1.65625,-3.09375 -0.64565,-0.96514 -1.37415,-1.86857 -2.1875,-2.6875 -0.81335,-0.81893 -1.7302,-1.5382 -2.6875,-2.1875 -0.9573,-0.6493 -1.95376,-1.23122 -3.03125,-1.6875 -1.07749,-0.45628 -2.23233,-0.79141 -3.40625,-1.03125 -1.17392,-0.23984 -2.3784,-0.375 -3.625,-0.375 l -224.5625,-0.65625 -0.1875,0.0312 h -0.34375 c -1.86208,0 -3.68004,-0.19796 -5.4375,-0.5625 -1.75746,-0.36454 -3.44627,-0.90206 -5.0625,-1.59375 -1.61623,-0.69169 -3.15536,-1.51855 -4.59375,-2.5 -0.97917,-0.66811 -1.83625,-1.49342 -2.71875,-2.28125 -46.56667,39.0018 -76.21875,97.5376 -76.21875,163.03125 0,64.89688 29.16483,122.90739 75,161.90625 z"
             id="path3844" /><path
             inkscape:connector-curvature="0"
             style="fill:#f2f2f2;fill-opacity:1;fill-rule:evenodd;stroke:none"
             d="m -500,339.75 c -48.63215,0 -93.30286,16.52723 -129.125,44 0.16181,0.11786 0.30292,0.26252 0.46875,0.375 0.9573,0.6493 1.95376,1.23122 3.03125,1.6875 1.07749,0.45628 2.23233,0.79141 3.40625,1.03125 1.17392,0.23984 2.37841,0.375 3.625,0.375 h 0.0937 l 225,0.625 h 0.0312 c 1.86027,0.002 3.68103,0.1965 5.4375,0.5625 1.75647,0.366 3.44661,0.90124 5.0625,1.59375 1.61589,0.69251 3.15522,1.54953 4.59375,2.53125 1.43853,0.98172 2.77562,2.07889 4,3.3125 1.22438,1.23361 2.33904,2.58306 3.3125,4.03125 0.97346,1.44819 1.81425,2.99954 2.5,4.625 0.68575,1.62546 1.20123,3.32832 1.5625,5.09375 0.36127,1.76543 0.5625,3.60067 0.5625,5.46875 0,1.86941 -0.20075,3.70216 -0.5625,5.46875 -0.36175,1.76659 -0.87585,3.46736 -1.5625,5.09375 -0.68665,1.62639 -1.5253,3.1762 -2.5,4.625 -0.9747,1.4488 -2.08662,2.79743 -3.3125,4.03125 -1.22588,1.23382 -2.59103,2.3623 -4.03125,3.34375 -1.44022,0.98145 -2.97605,1.80831 -4.59375,2.5 -1.6177,0.69169 -3.30418,1.22921 -5.0625,1.59375 -1.75832,0.36454 -3.57541,0.5625 -5.4375,0.5625 l -225,-0.65625 c -1.25308,6e-4 -2.47793,0.13397 -3.65625,0.375 -1.17832,0.24103 -2.29483,0.60465 -3.375,1.0625 -1.08017,0.45785 -2.13513,1.00516 -3.09375,1.65625 -0.95862,0.65109 -1.84257,1.39802 -2.65625,2.21875 -0.81368,0.82073 -1.54215,1.72072 -2.1875,2.6875 -0.64535,0.96678 -1.20262,2.00452 -1.65625,3.09375 -0.45363,1.08923 -0.79274,2.21816 -1.03125,3.40625 -0.23851,1.18809 -0.375,2.42415 -0.375,3.6875 0,1.26335 0.13603,2.50014 0.375,3.6875 0.23897,1.18736 0.57706,2.3183 1.03125,3.40625 0.45419,1.08795 1.0106,2.12861 1.65625,3.09375 0.64565,0.96514 1.37415,1.86857 2.1875,2.6875 0.81335,0.81893 1.7302,1.53819 2.6875,2.1875 0.9573,0.64931 1.95376,1.23122 3.03125,1.6875 1.07749,0.45628 2.23233,0.79141 3.40625,1.03125 1.17392,0.23984 2.37841,0.375 3.625,0.375 h 0.0312 l 224.96875,0.625 c 1.86208,0 3.68004,0.19796 5.4375,0.5625 1.75746,0.36454 3.44627,0.90206 5.0625,1.59375 1.61623,0.69169 3.15536,1.51855 4.59375,2.5 1.43839,0.98145 2.77607,2.10993 4,3.34375 1.22393,1.23382 2.33963,2.58245 3.3125,4.03125 0.97287,1.4488 1.81481,2.99861 2.5,4.625 0.68519,1.62639 1.2016,3.32715 1.5625,5.09375 0.3609,1.7666 0.5625,3.59934 0.5625,5.46875 0,1.86941 -0.2016,3.70301 -0.5625,5.46875 -0.3609,1.76574 -0.87731,3.46882 -1.5625,5.09375 -0.68519,1.62493 -1.52713,3.17803 -2.5,4.625 -0.97287,1.44697 -2.08857,2.76813 -3.3125,4 -1.22393,1.23187 -2.56161,2.36413 -4,3.34375 -1.43839,0.97962 -2.97752,1.80978 -4.59375,2.5 -1.61623,0.69022 -3.30504,1.23007 -5.0625,1.59375 -1.75746,0.36368 -3.57542,0.5625 -5.4375,0.5625 h -0.0312 l -224.96875,-0.625 h -0.0312 c -1.25117,0.003 -2.47898,0.1326 -3.65625,0.375 -1.17727,0.2424 -2.29519,0.60385 -3.375,1.0625 -1.07981,0.45865 -2.10373,1.00488 -3.0625,1.65625 -0.95877,0.65137 -1.87334,1.39819 -2.6875,2.21875 -0.81416,0.82056 -1.54152,1.72128 -2.1875,2.6875 -0.64598,0.96622 -1.20203,2.0054 -1.65625,3.09375 -0.45422,1.08835 -0.79235,2.2193 -1.03125,3.40625 -0.2389,1.18695 -0.375,2.42548 -0.375,3.6875 0,1.26335 0.13603,2.50014 0.375,3.6875 0.23897,1.18736 0.57706,2.3183 1.03125,3.40625 0.45419,1.08795 1.0106,2.12861 1.65625,3.09375 0.64565,0.96514 1.37415,1.86857 2.1875,2.6875 0.81335,0.81893 1.7302,1.5382 2.6875,2.1875 0.9573,0.6493 1.95376,1.23122 3.03125,1.6875 1.07749,0.45628 2.23233,0.79141 3.40625,1.03125 1.17392,0.23984 2.37841,0.375 3.625,0.375 h 0.0937 l 225,0.625 h 0.0312 c 1.86027,0.002 3.68103,0.19587 5.4375,0.5625 1.75647,0.36663 3.44661,0.89982 5.0625,1.59375 1.61589,0.69393 3.15522,1.54717 4.59375,2.53125 1.43853,0.98408 2.77562,2.10667 4,3.34375 1.22438,1.23708 2.33904,2.57831 3.3125,4.03125 0.97346,1.45294 1.81425,3.02461 2.5,4.65625 0.68575,1.63164 1.20123,3.32055 1.5625,5.09375 0.36127,1.7732 0.5625,3.62239 0.5625,5.5 0,1.87761 -0.20123,3.6964 -0.5625,5.46875 -0.36127,1.77235 -0.87674,3.49482 -1.5625,5.125 -0.68576,1.63018 -1.52654,3.1739 -2.5,4.625 -0.97346,1.4511 -2.08811,2.82737 -3.3125,4.0625 -1.22439,1.23513 -2.56147,2.33025 -4,3.3125 -1.43853,0.98225 -2.97786,1.83878 -4.59375,2.53125 -1.61589,0.69247 -3.30603,1.22797 -5.0625,1.59375 -1.75647,0.36578 -3.57723,0.56031 -5.4375,0.5625 h -0.0312 l -225,0.65625 h -0.375 c -1.22973,0.0193 -2.43674,0.15336 -3.59375,0.40625 -1.15701,0.25289 -2.25136,0.63002 -3.3125,1.09375 -1.06114,0.46373 -2.08911,1.03568 -3.03125,1.6875 -0.94214,0.65182 -1.82501,1.37033 -2.625,2.1875 -0.79999,0.81717 -1.52155,1.72773 -2.15625,2.6875 -0.6347,0.95977 -1.17873,1.98288 -1.625,3.0625 -0.44627,1.07962 -0.79654,2.19827 -1.03125,3.375 -0.23471,1.17673 -0.34375,2.40516 -0.34375,3.65625 0,1.26202 0.1361,2.50141 0.375,3.6875 0.2389,1.18609 0.57702,2.31937 1.03125,3.40625 0.45423,1.08688 1.01027,2.12937 1.65625,3.09375 0.64598,0.96438 1.37334,1.83765 2.1875,2.65625 0.81416,0.8186 1.72873,1.56921 2.6875,2.21875 0.95877,0.64954 1.98269,1.19906 3.0625,1.65625 1.07981,0.45719 2.19773,0.82094 3.375,1.0625 1.17727,0.24156 2.40508,0.37236 3.65625,0.375 0.0106,2e-5 0.0207,0 0.0312,0 l 224.96875,-0.625 h 0.0312 c 1.86208,0 3.68004,0.19796 5.4375,0.5625 1.75746,0.36454 3.44627,0.90206 5.0625,1.59375 1.61623,0.69169 3.15536,1.51855 4.59375,2.5 1.43839,0.98145 2.77607,2.10993 4,3.34375 1.22393,1.23382 2.33963,2.58245 3.3125,4.03125 0.97287,1.4488 1.81481,2.99861 2.5,4.625 0.68519,1.62639 1.2016,3.32715 1.5625,5.09375 0.3609,1.7666 0.5625,3.59934 0.5625,5.46875 0,1.86941 -0.2016,3.70301 -0.5625,5.46875 -0.3609,1.76574 -0.87731,3.46882 -1.5625,5.09375 -0.68519,1.62493 -1.52713,3.17803 -2.5,4.625 -0.97287,1.44697 -2.08857,2.76813 -3.3125,4 -1.22393,1.23187 -2.56161,2.36413 -4,3.34375 -1.43839,0.97962 -2.97752,1.80978 -4.59375,2.5 -1.61623,0.69022 -3.30504,1.23007 -5.0625,1.59375 -1.75746,0.36368 -3.57542,0.5625 -5.4375,0.5625 l -224.96875,0.65625 h -0.34375 c -1.22788,0.0214 -2.43861,0.1528 -3.59375,0.40625 -1.15514,0.25345 -2.25317,0.63067 -3.3125,1.09375 -1.05933,0.46308 -2.05955,1.03723 -3,1.6875 -0.6288,0.43478 -1.18295,0.95865 -1.75,1.46875 36.04146,28.09773 81.2597,44.96875 130.5,44.96875 117.42417,0 212.625,-95.16958 212.625,-212.59375 0,-117.42417 -95.20083,-212.625 -212.625,-212.625 z"
             id="path3832" /></g><g
           style="display:inline;fill:#808080"
           transform="translate(-4.6583726,4.9184293)"
           id="g3859"><circle
             style="fill:#808080;fill-opacity:1;fill-rule:evenodd;stroke:none"
             id="path3855"
             transform="translate(215.41426,27.052023)"
             cx="-372.71677"
             cy="33.402645"
             r="23.044315" /><circle
             transform="translate(627.20617,27.052023)"
             id="path3857"
             style="display:inline;fill:#808080;fill-opacity:1;fill-rule:evenodd;stroke:none"
             cx="-372.71677"
             cy="33.402645"
             r="23.044315" /></g></g></g><path
       style="fill:none;stroke:#000000;stroke-width:3.98874;stroke-opacity:1"
       d="M 160.10016,187.30322 27.878108,186.85084"
       id="path4910" /><text
       xml:space="preserve"
       style="font-weight:bold;font-size:10.8706px;font-family:'Sansation Light';-inkscape-font-specification:'Sansation Light,  Bold';fill:none;stroke:#000000;stroke-width:3.98874;stroke-opacity:1"
       x="6.3078694"
       y="190.38049"
       id="text5786"><tspan
         sodipodi:role="line"
         id="tspan5784"
         style="font-style:normal;font-variant:normal;font-weight:normal;font-stretch:normal;font-size:10.8706px;font-family:abeezee;-inkscape-font-specification:abeezee;fill:#000000;stroke:none;stroke-width:3.98874"
         x="6.3078694"
         y="190.38049">5V</tspan></text><text
       xml:space="preserve"
       style="font-weight:bold;font-size:10.8706px;line-height:1;font-family:'Sansation Light';-inkscape-font-specification:'Sansation Light,  Bold';fill:none;stroke:#000000;stroke-width:3.98874;stroke-opacity:1"
       x="21.361202"
       y="214.90442"
       id="text5786-3"><tspan
         sodipodi:role="line"
         id="tspan5784-6"
         style="font-style:normal;font-variant:normal;font-weight:normal;font-stretch:normal;font-size:10.8706px;font-family:abeezee;-inkscape-font-specification:abeezee;text-align:end;text-anchor:end;fill:#000000;stroke:none;stroke-width:3.98874"
         x="21.361202"
         y="214.90442">Arduino</tspan><tspan
         sodipodi:role="line"
         style="font-style:normal;font-variant:normal;font-weight:normal;font-stretch:normal;font-size:10.8706px;font-family:abeezee;-inkscape-font-specification:abeezee;text-align:end;text-anchor:end;fill:#000000;stroke:none;stroke-width:3.98874"
         x="21.361202"
         y="226.10721"
         id="tspan6178">Analogue</tspan><tspan
         sodipodi:role="line"
         style="font-style:normal;font-variant:normal;font-weight:normal;font-stretch:normal;font-size:10.8706px;font-family:abeezee;-inkscape-font-specification:abeezee;text-align:end;text-anchor:end;fill:#000000;stroke:none;stroke-width:3.98874"
         x="21.361202"
         y="237.31"
         id="tspan6180">Input</tspan></text><text
       xml:space="preserve"
       style="font-weight:bold;font-size:10.8706px;font-family:'Sansation Light';-inkscape-font-specification:'Sansation Light,  Bold';fill:none;stroke:#000000;stroke-width:3.98874;stroke-opacity:1"
       x="-0.15110666"
       y="310.65964"
       id="text5786-7"><tspan
         sodipodi:role="line"
         id="tspan5784-5"
         style="font-style:normal;font-variant:normal;font-weight:normal;font-stretch:normal;font-size:10.8706px;font-family:abeezee;-inkscape-font-specification:abeezee;fill:#000000;stroke:none;stroke-width:3.98874"
         x="-0.15110666"
         y="310.65964">GND</tspan></text><path
       style="fill:none;stroke:#000000;stroke-width:3.98874;stroke-opacity:1"
       d="m 160.33656,214.00551 0.32701,20.70442"
       id="path6128" /><path
       style="fill:none;stroke:#000000;stroke-width:3.98874;stroke-opacity:1"
       d="M 164.87198,306.20681 H 31.894536"
       id="path6130" /><path
       style="fill:none;stroke:#000000;stroke-width:3.98874;stroke-opacity:1"
       d="M 159.69677,224.03779 29.633929,223.06923"
       id="path6132" /></g></svg>
