<?xml version="1.0" encoding="UTF-8" standalone="no"?>
<!-- Created with Inkscape (http://www.inkscape.org/) -->

<svg
   width="110.99999mm"
   height="60.999996mm"
   viewBox="0 0 110.99999 60.999996"
   version="1.1"
   id="svg4488"
   inkscape:version="1.4 (e7c3feb100, 2024-10-09)"
   sodipodi:docname="gridlock-logo.svg"
   xmlns:inkscape="http://www.inkscape.org/namespaces/inkscape"
   xmlns:sodipodi="http://sodipodi.sourceforge.net/DTD/sodipodi-0.dtd"
   xmlns:xlink="http://www.w3.org/1999/xlink"
   xmlns="http://www.w3.org/2000/svg"
   xmlns:svg="http://www.w3.org/2000/svg"
   xmlns:rdf="http://www.w3.org/1999/02/22-rdf-syntax-ns#"
   xmlns:cc="http://creativecommons.org/ns#"
   xmlns:dc="http://purl.org/dc/elements/1.1/">
  <defs
     id="defs4482">
    <linearGradient
       id="linearGradient233"
       inkscape:collect="always">
      <stop
         style="stop-color:#4a6f74;stop-opacity:0;"
         offset="0.0001"
         id="stop230" />
      <stop
         style="stop-color:#497073;stop-opacity:1;"
         offset="0.14806107"
         id="stop231" />
      <stop
         style="stop-color:#497173;stop-opacity:1;"
         offset="0.85000002"
         id="stop232" />
      <stop
         style="stop-color:#497273;stop-opacity:0;"
         offset="1"
         id="stop233" />
    </linearGradient>
    <linearGradient
       id="linearGradient229"
       inkscape:collect="always">
      <stop
         style="stop-color:#4a6f74;stop-opacity:0;"
         offset="0.0001"
         id="stop226" />
      <stop
         style="stop-color:#497073;stop-opacity:1;"
         offset="0.14806107"
         id="stop227" />
      <stop
         style="stop-color:#497173;stop-opacity:1;"
         offset="0.75"
         id="stop228" />
      <stop
         style="stop-color:#497273;stop-opacity:0;"
         offset="1"
         id="stop229" />
    </linearGradient>
    <linearGradient
       id="linearGradient222"
       inkscape:collect="always">
      <stop
         style="stop-color:#4a6f74;stop-opacity:0;"
         offset="0"
         id="stop219" />
      <stop
         style="stop-color:#497073;stop-opacity:1;"
         offset="0.14806107"
         id="stop220" />
      <stop
         style="stop-color:#497173;stop-opacity:1;"
         offset="0.85000002"
         id="stop221" />
      <stop
         style="stop-color:#497273;stop-opacity:0;"
         offset="1"
         id="stop222" />
    </linearGradient>
    <linearGradient
       id="linearGradient212"
       inkscape:collect="always">
      <stop
         style="stop-color:#4a6f74;stop-opacity:0;"
         offset="0.0001"
         id="stop213" />
      <stop
         style="stop-color:#497073;stop-opacity:1;"
         offset="0.14806107"
         id="stop214" />
      <stop
         style="stop-color:#497173;stop-opacity:1;"
         offset="0.75"
         id="stop215" />
      <stop
         style="stop-color:#497273;stop-opacity:0;"
         offset="1"
         id="stop212" />
    </linearGradient>
    <linearGradient
       id="linearGradient187"
       inkscape:collect="always">
      <stop
         style="stop-color:#0f4c51;stop-opacity:1;"
         offset="0"
         id="stop186" />
      <stop
         style="stop-color:#c1e7ee;stop-opacity:1;"
         offset="1"
         id="stop187" />
    </linearGradient>
    <linearGradient
       id="linearGradient92"
       inkscape:collect="always">
      <stop
         style="stop-color:#000000;stop-opacity:1;"
         offset="0"
         id="stop91" />
      <stop
         style="stop-color:#000000;stop-opacity:0;"
         offset="1"
         id="stop92" />
    </linearGradient>
    <linearGradient
       id="linearGradient89"
       inkscape:collect="always">
      <stop
         style="stop-color:#000000;stop-opacity:1;"
         offset="0"
         id="stop89" />
      <stop
         style="stop-color:#000000;stop-opacity:0;"
         offset="1"
         id="stop90" />
    </linearGradient>
    <linearGradient
       id="swatch81"
       inkscape:swatch="solid">
      <stop
         style="stop-color:#000000;stop-opacity:1;"
         offset="0"
         id="stop81" />
    </linearGradient>
    <linearGradient
       inkscape:collect="always"
       xlink:href="#linearGradient187"
       id="linearGradient96"
       gradientUnits="userSpaceOnUse"
       x1="70.5"
       y1="61"
       x2="70.5"
       y2="61.5"
       gradientTransform="matrix(2,0,0,2,-5.0000042,-9.9999962)" />
    <linearGradient
       inkscape:collect="always"
       xlink:href="#linearGradient187"
       id="linearGradient98"
       gradientUnits="userSpaceOnUse"
       x1="70"
       y1="50.5"
       x2="70"
       y2="49.5"
       gradientTransform="matrix(2,0,0,2,-5.0000042,-9.9999962)" />
    <linearGradient
       inkscape:collect="always"
       xlink:href="#linearGradient187"
       id="linearGradient100"
       gradientUnits="userSpaceOnUse"
       x1="80"
       y1="61.5"
       x2="80"
       y2="62"
       gradientTransform="matrix(2,0,0,2,-5.0000042,-9.9999962)" />
    <linearGradient
       inkscape:collect="always"
       xlink:href="#linearGradient187"
       id="linearGradient104"
       gradientUnits="userSpaceOnUse"
       x1="60"
       y1="61"
       x2="60"
       y2="61.5"
       gradientTransform="matrix(2,0,0,2,-5.0000042,-9.9999962)" />
    <linearGradient
       inkscape:collect="always"
       xlink:href="#linearGradient187"
       id="linearGradient106"
       gradientUnits="userSpaceOnUse"
       x1="50.5"
       y1="61"
       x2="50.5"
       y2="61.5"
       gradientTransform="matrix(2,0,0,2,-5.0000042,-9.9999962)" />
    <linearGradient
       inkscape:collect="always"
       xlink:href="#linearGradient187"
       id="linearGradient108"
       gradientUnits="userSpaceOnUse"
       x1="60"
       y1="50.5"
       x2="60"
       y2="49.5"
       gradientTransform="matrix(2,0,0,2,-5.0000042,-9.9999962)" />
    <linearGradient
       inkscape:collect="always"
       xlink:href="#linearGradient92"
       id="linearGradient107-7"
       gradientUnits="userSpaceOnUse"
       x1="56.873001"
       y1="50.03606"
       x2="63.974609"
       y2="50.03606"
       gradientTransform="translate(-110,-30)" />
    <linearGradient
       inkscape:collect="always"
       xlink:href="#linearGradient92"
       id="linearGradient97-8"
       gradientUnits="userSpaceOnUse"
       x1="69.212891"
       y1="50.036133"
       x2="70.787109"
       y2="50.036133"
       gradientTransform="translate(-110,-30)" />
    <linearGradient
       inkscape:collect="always"
       xlink:href="#linearGradient92"
       id="linearGradient109-2"
       gradientUnits="userSpaceOnUse"
       x1="75.880814"
       y1="50.036201"
       x2="82.304726"
       y2="50.036201"
       gradientTransform="translate(-110,-30)" />
    <linearGradient
       inkscape:collect="always"
       xlink:href="#linearGradient92"
       id="linearGradient105-9"
       gradientUnits="userSpaceOnUse"
       x1="47.257812"
       y1="60.036152"
       x2="53.20121"
       y2="60.036152"
       gradientTransform="translate(-110,-30)" />
    <linearGradient
       inkscape:collect="always"
       xlink:href="#linearGradient92"
       id="linearGradient103-6"
       gradientUnits="userSpaceOnUse"
       x1="56.546829"
       y1="60.035202"
       x2="63.45322"
       y2="60.035202"
       gradientTransform="translate(-110,-30)" />
    <linearGradient
       inkscape:collect="always"
       xlink:href="#linearGradient92"
       id="linearGradient95-0"
       gradientUnits="userSpaceOnUse"
       x1="67.132767"
       y1="60.036243"
       x2="73.019707"
       y2="60.036243"
       gradientTransform="translate(-110,-30)" />
    <linearGradient
       inkscape:collect="always"
       xlink:href="#linearGradient92"
       id="linearGradient99-1"
       gradientUnits="userSpaceOnUse"
       x1="76.939453"
       y1="60.036133"
       x2="84.009766"
       y2="60.036133"
       gradientTransform="translate(-110,-30)" />
    <linearGradient
       inkscape:collect="always"
       xlink:href="#linearGradient89"
       id="linearGradient111"
       gradientUnits="userSpaceOnUse"
       x1="46.810497"
       y1="50.036243"
       x2="53.238503"
       y2="50.036243"
       gradientTransform="translate(-110,-30)" />
    <linearGradient
       inkscape:collect="always"
       xlink:href="#linearGradient89"
       id="linearGradient112"
       gradientUnits="userSpaceOnUse"
       x1="46.810497"
       y1="50.036243"
       x2="53.238503"
       y2="50.036243"
       gradientTransform="translate(-110,-30)" />
    <linearGradient
       inkscape:collect="always"
       xlink:href="#linearGradient92"
       id="linearGradient113"
       gradientUnits="userSpaceOnUse"
       x1="56.873001"
       y1="50.03606"
       x2="63.974609"
       y2="50.03606"
       gradientTransform="translate(-110,-30)" />
    <linearGradient
       inkscape:collect="always"
       xlink:href="#linearGradient92"
       id="linearGradient114"
       gradientUnits="userSpaceOnUse"
       x1="69.212891"
       y1="50.036133"
       x2="70.787109"
       y2="50.036133"
       gradientTransform="translate(-110,-30)" />
    <linearGradient
       inkscape:collect="always"
       xlink:href="#linearGradient92"
       id="linearGradient115"
       gradientUnits="userSpaceOnUse"
       x1="75.880814"
       y1="50.036201"
       x2="82.304726"
       y2="50.036201"
       gradientTransform="translate(-110,-30)" />
    <linearGradient
       inkscape:collect="always"
       xlink:href="#linearGradient92"
       id="linearGradient116"
       gradientUnits="userSpaceOnUse"
       x1="47.257812"
       y1="60.036152"
       x2="53.20121"
       y2="60.036152"
       gradientTransform="translate(-110,-30)" />
    <linearGradient
       inkscape:collect="always"
       xlink:href="#linearGradient92"
       id="linearGradient117"
       gradientUnits="userSpaceOnUse"
       x1="56.546829"
       y1="60.035202"
       x2="63.45322"
       y2="60.035202"
       gradientTransform="translate(-110,-30)" />
    <linearGradient
       inkscape:collect="always"
       xlink:href="#linearGradient92"
       id="linearGradient118"
       gradientUnits="userSpaceOnUse"
       x1="67.132767"
       y1="60.036243"
       x2="73.019707"
       y2="60.036243"
       gradientTransform="translate(-110,-30)" />
    <linearGradient
       inkscape:collect="always"
       xlink:href="#linearGradient92"
       id="linearGradient119"
       gradientUnits="userSpaceOnUse"
       x1="76.939453"
       y1="60.036133"
       x2="84.009766"
       y2="60.036133"
       gradientTransform="translate(-110,-30)" />
    <linearGradient
       inkscape:collect="always"
       xlink:href="#linearGradient187"
       id="linearGradient121"
       gradientUnits="userSpaceOnUse"
       x1="50"
       y1="50.5"
       x2="50"
       y2="49.5"
       gradientTransform="matrix(2,0,0,2,-5.0000042,-9.9999962)" />
    <linearGradient
       inkscape:collect="always"
       xlink:href="#linearGradient187"
       id="linearGradient192"
       x1="95"
       y1="88"
       x2="95"
       y2="92"
       gradientUnits="userSpaceOnUse" />
    <linearGradient
       inkscape:collect="always"
       xlink:href="#linearGradient187"
       id="linearGradient194"
       x1="155"
       y1="88"
       x2="155"
       y2="92"
       gradientUnits="userSpaceOnUse" />
    <linearGradient
       inkscape:collect="always"
       xlink:href="#linearGradient187"
       id="linearGradient198"
       x1="135"
       y1="88"
       x2="135"
       y2="92"
       gradientUnits="userSpaceOnUse" />
    <linearGradient
       inkscape:collect="always"
       xlink:href="#linearGradient187"
       id="linearGradient200"
       x1="136"
       y1="114"
       x2="136"
       y2="111"
       gradientUnits="userSpaceOnUse" />
    <linearGradient
       inkscape:collect="always"
       xlink:href="#linearGradient187"
       id="linearGradient202"
       x1="155"
       y1="115"
       x2="155"
       y2="112"
       gradientUnits="userSpaceOnUse" />
    <linearGradient
       inkscape:collect="always"
       xlink:href="#linearGradient187"
       id="linearGradient204"
       x1="115"
       y1="114"
       x2="115"
       y2="111"
       gradientUnits="userSpaceOnUse" />
    <linearGradient
       inkscape:collect="always"
       xlink:href="#linearGradient187"
       id="linearGradient206"
       x1="96"
       y1="114"
       x2="96"
       y2="111"
       gradientUnits="userSpaceOnUse" />
    <linearGradient
       inkscape:collect="always"
       xlink:href="#linearGradient187"
       id="linearGradient208"
       gradientUnits="userSpaceOnUse"
       x1="115"
       y1="88"
       x2="115"
       y2="92" />
    <linearGradient
       inkscape:collect="always"
       xlink:href="#linearGradient187"
       id="linearGradient209"
       gradientUnits="userSpaceOnUse"
       gradientTransform="matrix(2,0,0,2,-2.8423672,-9.9999962)"
       x1="78.921181"
       y1="50.5"
       x2="78.921181"
       y2="49.5" />
    <linearGradient
       inkscape:collect="always"
       xlink:href="#linearGradient229"
       id="linearGradient211"
       x1="125"
       y1="127"
       x2="125"
       y2="74"
       gradientUnits="userSpaceOnUse" />
    <linearGradient
       inkscape:collect="always"
       xlink:href="#linearGradient233"
       id="linearGradient215"
       gradientUnits="userSpaceOnUse"
       x1="125"
       y1="127"
       x2="125"
       y2="74"
       gradientTransform="translate(19.999994)" />
    <linearGradient
       inkscape:collect="always"
       xlink:href="#linearGradient212"
       id="linearGradient217"
       gradientUnits="userSpaceOnUse"
       gradientTransform="translate(-20.000009)"
       x1="125"
       y1="127"
       x2="125"
       y2="74" />
    <linearGradient
       inkscape:collect="always"
       xlink:href="#linearGradient212"
       id="linearGradient218"
       gradientUnits="userSpaceOnUse"
       gradientTransform="translate(-40.000008)"
       x1="125"
       y1="127"
       x2="125"
       y2="74" />
    <linearGradient
       inkscape:collect="always"
       xlink:href="#linearGradient222"
       id="linearGradient219"
       gradientUnits="userSpaceOnUse"
       gradientTransform="rotate(90,135.00001,89.999995)"
       x1="125.00002"
       y1="150"
       x2="125.00002"
       y2="50.000011" />
    <linearGradient
       inkscape:collect="always"
       xlink:href="#linearGradient233"
       id="linearGradient240"
       gradientUnits="userSpaceOnUse"
       gradientTransform="translate(39.999989)"
       x1="125"
       y1="127"
       x2="125"
       y2="74" />
    <linearGradient
       inkscape:collect="always"
       xlink:href="#linearGradient222"
       id="linearGradient241"
       gradientUnits="userSpaceOnUse"
       gradientTransform="rotate(90,125.00001,99.999995)"
       x1="125.00002"
       y1="150"
       x2="125.00002"
       y2="50.000011" />
    <linearGradient
       inkscape:collect="always"
       xlink:href="#linearGradient222"
       id="linearGradient242"
       gradientUnits="userSpaceOnUse"
       gradientTransform="rotate(90,115.00001,109.99999)"
       x1="125.00002"
       y1="150"
       x2="125.00002"
       y2="50.000011" />
  </defs>
  <sodipodi:namedview
     id="base"
     pagecolor="#ffffff"
     bordercolor="#666666"
     borderopacity="1.0"
     inkscape:pageopacity="0.0"
     inkscape:pageshadow="2"
     inkscape:zoom="2.1430422"
     inkscape:cx="241.24583"
     inkscape:cy="149.55375"
     inkscape:document-units="mm"
     inkscape:current-layer="layer1"
     showgrid="false"
     inkscape:showpageshadow="0"
     inkscape:pagecheckerboard="1"
     inkscape:deskcolor="#d1d1d1"
     showguides="true"
     inkscape:window-width="1920"
     inkscape:window-height="1031"
     inkscape:window-x="0"
     inkscape:window-y="26"
     inkscape:window-maximized="1">
    <inkscape:grid
       id="grid2"
       units="mm"
       originx="-69.499998"
       originy="-69.500004"
       spacingx="0.99999998"
       spacingy="1"
       empcolor="#0000ff"
       empopacity="0.25098039"
       color="#0000ff"
       opacity="0.1254902"
       empspacing="5"
       enabled="true"
       visible="false" />
  </sodipodi:namedview>
  <metadata
     id="metadata4485">
    <rdf:RDF>
      <cc:Work
         rdf:about="">
        <dc:format>image/svg+xml</dc:format>
        <dc:type
           rdf:resource="http://purl.org/dc/dcmitype/StillImage" />
      </cc:Work>
    </rdf:RDF>
  </metadata>
  <g
     inkscape:label="Layer 1"
     inkscape:groupmode="layer"
     id="layer1"
     transform="translate(-69.499999,-69.500003)">
    <rect
       style="color:#000000;overflow:visible;fill:#f2e5c8;fill-opacity:1;stroke:none;stroke-width:0.2;stroke-linecap:round;stroke-linejoin:round;stroke-dasharray:none;stroke-opacity:1;paint-order:stroke fill markers"
       id="rect242"
       width="19.000002"
       height="19.000002"
       x="85.5"
       y="80.5" />
    <rect
       style="color:#000000;overflow:visible;fill:#edf2c8;fill-opacity:1;stroke:none;stroke-width:0.2;stroke-linecap:round;stroke-linejoin:round;stroke-dasharray:none;stroke-opacity:1;paint-order:stroke fill markers"
       id="rect242-8"
       width="19.000002"
       height="19.000002"
       x="105.5"
       y="80.5" />
    <rect
       style="color:#000000;overflow:visible;fill:#c8f2d4;fill-opacity:1;stroke:none;stroke-width:0.2;stroke-linecap:round;stroke-linejoin:round;stroke-dasharray:none;stroke-opacity:1;paint-order:stroke fill markers"
       id="rect242-7"
       width="19.000002"
       height="19.000002"
       x="125.5"
       y="80.5" />
    <rect
       style="color:#000000;overflow:visible;fill:#c8f1f2;fill-opacity:1;stroke:none;stroke-width:0.2;stroke-linecap:round;stroke-linejoin:round;stroke-dasharray:none;stroke-opacity:1;paint-order:stroke fill markers"
       id="rect242-2"
       width="19.000002"
       height="19.000002"
       x="145.5"
       y="80.5" />
    <rect
       style="color:#000000;overflow:visible;fill:#f2c8ca;fill-opacity:1;stroke:none;stroke-width:0.2;stroke-linecap:round;stroke-linejoin:round;stroke-dasharray:none;stroke-opacity:1;paint-order:stroke fill markers"
       id="rect242-82"
       width="19.000002"
       height="19.000002"
       x="145.5"
       y="100.5" />
    <rect
       style="color:#000000;overflow:visible;fill:#f2c8ef;fill-opacity:1;stroke:none;stroke-width:0.2;stroke-linecap:round;stroke-linejoin:round;stroke-dasharray:none;stroke-opacity:1;paint-order:stroke fill markers"
       id="rect242-9"
       width="19.000002"
       height="19.000002"
       x="125.5"
       y="100.5" />
    <rect
       style="color:#000000;overflow:visible;fill:#ccc8f2;fill-opacity:1;stroke:none;stroke-width:0.2;stroke-linecap:round;stroke-linejoin:round;stroke-dasharray:none;stroke-opacity:1;paint-order:stroke fill markers"
       id="rect242-96"
       width="19"
       height="19"
       x="105.5"
       y="100.5" />
    <rect
       style="color:#000000;overflow:visible;fill:#c8ddf2;fill-opacity:1;stroke:none;stroke-width:0.2;stroke-linecap:round;stroke-linejoin:round;stroke-dasharray:none;stroke-opacity:1;paint-order:stroke fill markers"
       id="rect242-0"
       width="19"
       height="19.000002"
       x="85.5"
       y="100.5" />
    <path
       style="-inkscape-font-specification:Audiowide;fill:url(#linearGradient209);stroke:url(#linearGradient194);stroke-width:0.3;stroke-dasharray:none"
       d="m 150.50138,83.644536 c -0.21386,0 -0.42508,0.03942 -0.6211,0.1211 -0.18964,0.07902 -0.36276,0.1948 -0.50781,0.339844 l -0.004,0.004 -0.008,0.004 c -0.13628,0.14428 -0.24357,0.315812 -0.32031,0.5 -0.0807,0.19374 -0.1211,0.402724 -0.1211,0.61328 v 9.691406 c 0,0.213862 0.0394,0.42508 0.1211,0.621094 0.0767,0.18418 0.18404,0.355714 0.32031,0.5 l 0.0118,0.0078 0.008,0.0118 c 0.14428,0.13628 0.31582,0.243572 0.5,0.320312 0.19602,0.08168 0.40723,0.1211 0.6211,0.1211 h 5.80468 c 0.76921,0 1.49824,-0.13618 2.16797,-0.410156 0.66193,-0.270788 1.24175,-0.650196 1.73047,-1.132812 h 0.004 c 0.48885,-0.48885 0.86934,-1.07125 1.14062,-1.734376 0.28082,-0.671516 0.41797,-1.402978 0.41797,-2.183594 V 89.10574 c 0,-0.772872 -0.1393,-1.502764 -0.41797,-2.171874 -0.27058,-0.667444 -0.65152,-1.25423 -1.14062,-1.738282 -0.48885,-0.488848 -1.07125,-0.873252 -1.73438,-1.14453 -0.66973,-0.273984 -1.39876,-0.40625 -2.16796,-0.40625 z m 1.5664,3.148436 h 4.23829 c 0.3641,0 0.67708,0.06058 0.95312,0.17188 h 0.008 l 0.004,0.004 c 0.28713,0.10938 0.51787,0.260054 0.71484,0.457032 h 0.004 v 0.004 c 0.19452,0.1902 0.34406,0.416822 0.45313,0.703124 l 0.004,0.004 v 0.004 c 0.11238,0.283196 0.17188,0.600746 0.17188,0.964844 v 1.933594 c 0,0.370323 -0.0598,0.690304 -0.17188,0.972656 v 0.004 c -0.10832,0.279828 -0.26062,0.509584 -0.45703,0.707032 -7.6e-4,7.4e-4 -0.003,-7.38e-4 -0.004,0 -7.7e-4,7.68e-4 7.6e-4,0.0032 0,0.004 -0.1965,0.19116 -0.43134,0.34225 -0.71875,0.457032 -0.27762,0.10746 -0.59465,0.16796 -0.96094,0.16796 h -4.23828 z"
       id="path42"
       sodipodi:nodetypes="cssccsssscccsssscccssccscccscccccccccssccscccscc" />
    <path
       style="-inkscape-font-specification:Audiowide;fill:url(#linearGradient121);stroke:url(#linearGradient192);stroke-width:0.3;stroke-dasharray:none;stroke-opacity:1"
       d="m 92.14062,83.644536 c -0.411602,0 -0.794038,0.05164 -1.14453,0.16406 -0.335176,0.1075 -0.642744,0.25731 -0.914062,0.449218 v -0.004 c -0.258746,0.18112 -0.484852,0.397026 -0.675782,0.640626 -0.18416,0.234988 -0.336424,0.484204 -0.453126,0.75 -0.11252,0.250696 -0.19706,0.508164 -0.253906,0.773436 v 0.0078 l -0.004,0.004 c -0.04936,0.252994 -0.07422,0.494998 -0.07422,0.730468 v 5.820312 c 0,0.411602 0.05258,0.79819 0.16406,1.152344 v 0.004 c 0.10664,0.332463 0.25315,0.63631 0.4375,0.90625 l 0.004,0.004 0.004,0.0078 c 0.18546,0.255808 0.398747,0.478388 0.640625,0.667968 l 0.004,0.004 0.004,0.004 c 0.231978,0.17556 0.474114,0.322146 0.730468,0.4375 h 0.004 0.004 c 0.25408,0.11154 0.509446,0.1968 0.76953,0.253906 h 0.0078 l 0.0078,0.004 c 0.257302,0.049 0.50281,0.07422 0.73828,0.07422 h 7.753908 c 0.213865,0 0.425075,-0.03942 0.621095,-0.1211 0.18645,-0.0777 0.35776,-0.1898 0.49999,-0.332032 0.14506,-0.14504 0.26083,-0.318164 0.33985,-0.507812 0.0817,-0.19602 0.1211,-0.40723 0.1211,-0.621094 V 90.07075 c 0,-0.207968 -0.0395,-0.41502 -0.1211,-0.605468 -0.0779,-0.18694 -0.19378,-0.356208 -0.33594,-0.5 -0.13754,-0.14384 -0.30526,-0.261154 -0.48828,-0.339844 -0.002,-0.0011 -0.005,0.0011 -0.008,0 -0.19736,-0.08918 -0.41166,-0.13672 -0.628903,-0.13672 h -7.289064 v 3.167968 h 5.722656 v 1.695312 h -6.1875 c -0.17828,0 -0.242144,-0.03888 -0.289062,-0.08204 -0.04314,-0.04692 -0.08204,-0.11078 -0.08204,-0.289064 v -5.80078 c 0,-0.207238 0.04496,-0.275436 0.07812,-0.308594 0.03752,-0.03752 0.10008,-0.07812 0.292968,-0.07812 h 9.238275 v -3.148437 z"
       id="path36"
       sodipodi:nodetypes="csccsccccssccccccccccccccsssssssccccsccccscssssccc" />
    <path
       style="-inkscape-font-specification:Audiowide;fill:url(#linearGradient108);stroke:url(#linearGradient208);stroke-width:0.3;stroke-dasharray:none"
       d="m 110.32811,83.644536 c -0.21386,0 -0.42508,0.03942 -0.62109,0.1211 -0.18964,0.07902 -0.36276,0.1948 -0.50781,0.339844 l -0.008,0.004 -0.004,0.004 c -0.13628,0.14428 -0.24357,0.315814 -0.32031,0.5 -0.0807,0.19374 -0.1211,0.402724 -0.1211,0.61328 v 11.273244 h 3.14843 v -3.878906 h 1.71875 l 4.48447,3.878906 h 4.85156 l -4.67969,-4.046876 c 0.26684,-0.06724 0.53264,-0.13778 0.78906,-0.253906 l 0.004,-0.004 c 0.33298,-0.15416 0.6508,-0.346696 0.94922,-0.578124 0.31015,-0.240522 0.58171,-0.52927 0.8125,-0.859376 v -0.004 c 0.2409,-0.342992 0.43185,-0.731998 0.56641,-1.160156 0.13944,-0.443674 0.20312,-0.933062 0.20312,-1.464844 v -1.371094 c 0,-0.323612 -0.0582,-0.657624 -0.16406,-1 -0.10618,-0.360786 -0.28594,-0.698634 -0.52734,-1 l -0.004,-0.004 c -0.25153,-0.32489 -0.57955,-0.589994 -0.96484,-0.789062 -0.41785,-0.221202 -0.90723,-0.320312 -1.44532,-0.320312 z m 1.56641,3.148436 h 6.55078 v 1.335938 c 0,0.228838 -0.0367,0.413952 -0.0977,0.566406 -0.0623,0.1508 -0.14548,0.270158 -0.25781,0.375 l -0.004,0.004 c -0.11152,0.10768 -0.25097,0.19706 -0.42578,0.269532 -0.16702,0.06598 -0.36158,0.11058 -0.58594,0.1289 h -5.17969 z"
       id="path38"
       sodipodi:nodetypes="cscccsscccccccccsccsssccccccccsccccccc" />
    <path
       style="-inkscape-font-specification:Audiowide;fill:url(#linearGradient98);stroke:url(#linearGradient198);stroke-width:0.3;stroke-dasharray:none"
       d="m 133.42577,83.644536 v 12.855468 h 3.14844 V 83.644536 Z"
       id="path40"
       sodipodi:nodetypes="ccccc" />
    <path
       style="-inkscape-font-specification:Audiowide;fill:url(#linearGradient106);stroke:url(#linearGradient206);stroke-width:0.3;stroke-dasharray:none"
       d="m 89.51562,103.64453 v 11.27344 c 2e-6,0.21386 0.03942,0.42508 0.1211,0.62109 0.07674,0.1842 0.18404,0.35572 0.320314,0.5 l 0.0078,0.008 0.0118,0.0118 c 0.14428,0.13628 0.315814,0.24358 0.5,0.32032 0.19602,0.0817 0.407232,0.1211 0.621094,0.1211 h 10.304682 v -3.14844 h -8.738276 v -9.70703 z"
       id="path44"
       sodipodi:nodetypes="ccscccssccccc" />
    <path
       style="-inkscape-font-specification:Audiowide;fill:url(#linearGradient104);stroke:url(#linearGradient204);stroke-width:0.3;stroke-dasharray:none"
       d="m 113.55468,103.47656 c -0.76921,0 -1.49824,0.13618 -2.16797,0.41016 -0.6614,0.27057 -1.2424,0.6536 -1.73047,1.14063 -0.49019,0.48406 -0.8756,1.06657 -1.15234,1.73437 l -0.004,0.004 c -0.27419,0.67023 -0.40625,1.3976 -0.40625,2.17188 v 2.26562 c 0,0.77934 0.13186,1.51288 0.40625,2.18359 h 0.004 v 0.004 c 0.27671,0.66172 0.66032,1.24236 1.14843,1.73047 0.48885,0.48885 1.07125,0.87326 1.73438,1.14453 h 0.004 c 0.66891,0.26757 1.39615,0.39844 2.16406,0.39844 h 2.91016 c 0.76791,0 1.48803,-0.13028 2.15234,-0.39844 h 0.004 c 0.66313,-0.27127 1.24553,-0.65568 1.73438,-1.14453 0.48885,-0.48885 0.87325,-1.07125 1.14453,-1.73437 0.27438,-0.67072 0.40625,-1.40425 0.40625,-2.1836 v -2.26581 c 0,-0.77427 -0.13206,-1.50165 -0.40625,-2.17187 -0.27105,-0.66814 -0.6549,-1.25003 -1.14472,-1.73438 -0.48885,-0.48885 -1.07125,-0.87325 -1.73438,-1.14453 -0.66513,-0.2746 -1.38704,-0.41016 -2.15625,-0.41016 z m 0,3.15236 h 2.91015 c 0.35786,0 0.66842,0.0563 0.94532,0.16796 l 0.004,0.004 h 0.004 c 0.2863,0.10906 0.51683,0.2586 0.70703,0.45312 l 0.004,0.004 0.004,0.004 c 0.19452,0.1902 0.34405,0.42073 0.45312,0.70703 v 0.004 0.004 c 0.11096,0.27517 0.17188,0.59062 0.17188,0.96094 v 2.26562 c 0,0.37033 -0.0598,0.69031 -0.17188,0.97266 v 0.004 c -0.10832,0.27983 -0.2567,0.51349 -0.45312,0.71094 -0.1985,0.19408 -0.43874,0.34517 -0.73047,0.46094 -0.27682,0.10664 -0.59219,0.16406 -0.95703,0.16406 h -2.89063 c -0.36343,0 -0.68175,-0.0572 -0.96484,-0.16406 -0.28451,-0.11472 -0.51974,-0.26341 -0.71875,-0.45703 l -0.004,-0.004 c -0.19576,-0.19676 -0.34744,-0.42852 -0.46094,-0.70703 v -0.004 c -0.10736,-0.28314 -0.16406,-0.60552 -0.16406,-0.97657 v -2.266 c 0,-0.37103 0.0577,-0.68882 0.16406,-0.96484 v -0.004 c 0.11444,-0.2872 0.26585,-0.51628 0.46094,-0.70703 h 0.004 v -0.004 c 0.19828,-0.19828 0.43322,-0.34802 0.71484,-0.45703 h 0.004 c 0.2832,-0.11238 0.60075,-0.17188 0.96485,-0.17188 z"
       id="path46"
       sodipodi:nodetypes="sscccsscccsccssccsssscccssscccccccccssccccssccsccsscccccccccs" />
    <path
       style="-inkscape-font-specification:Audiowide;fill:url(#linearGradient96);stroke:url(#linearGradient200);stroke-width:0.3;stroke-dasharray:none"
       d="m 132.78515,103.64453 c -0.41161,0 -0.79404,0.0516 -1.14454,0.16406 -0.33517,0.1075 -0.64274,0.25731 -0.91406,0.44922 v -0.004 c -0.25874,0.18112 -0.48485,0.39703 -0.67578,0.64063 -0.18304,0.23355 -0.3328,0.4821 -0.44922,0.74609 -0.11328,0.25177 -0.2007,0.51086 -0.25781,0.77734 v 0.008 l -0.004,0.004 c -0.0494,0.253 -0.0742,0.495 -0.0742,0.73047 v 5.82031 c 0,0.41161 0.0526,0.79819 0.16406,1.15235 v 0.004 c 0.10664,0.33246 0.25315,0.63631 0.4375,0.90625 l 0.004,0.004 0.004,0.008 c 0.18546,0.25581 0.39875,0.47839 0.64063,0.66797 l 0.004,0.004 0.004,0.004 c 0.23197,0.17556 0.47801,0.32214 0.73437,0.4375 h 0.004 c 0.25408,0.11154 0.50945,0.1968 0.76953,0.2539 h 0.008 l 0.008,0.004 c 0.25731,0.049 0.50281,0.0742 0.73828,0.0742 h 8.25391 v -3.14844 h -8.25391 c -0.17828,0 -0.24214,-0.0389 -0.28906,-0.082 -0.0432,-0.0469 -0.082,-0.11078 -0.082,-0.28906 v -5.80078 c 0,-0.20724 0.045,-0.27544 0.0781,-0.30859 0.0375,-0.0375 0.10008,-0.0781 0.29297,-0.0781 h 8.25391 v -3.14844 z"
       id="path48"
       sodipodi:nodetypes="csccsccccsscccccccccccccsccscssssccc" />
    <path
       style="-inkscape-font-specification:Audiowide;fill:url(#linearGradient100);stroke:url(#linearGradient202);stroke-width:0.3;stroke-dasharray:none"
       d="M 148.8789,103.64453 V 116.5 h 3.14843 v -4.84375 h 1.66407 l 4.83984,4.84375 h 4.48828 l -6.60937,-6.42969 6.60937,-6.42578 h -4.48828 l -4.83984,4.84375 h -1.66407 v -4.84375 z"
       id="path50"
       sodipodi:nodetypes="cccccccccccccc" />
    <path
       style="-inkscape-font-specification:Audiowide;fill:url(#linearGradient111);fill-opacity:1"
       d="m -57.011034,22.458431 q 0,0.115755 -0.04134,0.214974 -0.04134,0.09922 -0.115755,0.173633 -0.07028,0.07028 -0.169499,0.111621 Q -57.436848,23 -57.552603,23 h -3.877801 q -0.148828,0 -0.322461,-0.03307 -0.169499,-0.03721 -0.338998,-0.111621 -0.165364,-0.07441 -0.318327,-0.190169 -0.152962,-0.11989 -0.272851,-0.285254 -0.115756,-0.169499 -0.186036,-0.388607 -0.07028,-0.223243 -0.07028,-0.500228 V 18.58063 q 0,-0.148828 0.03307,-0.318327 0.03721,-0.173633 0.111621,-0.338998 0.07442,-0.169498 0.194304,-0.322461 0.119889,-0.152962 0.285254,-0.268717 0.169499,-0.11989 0.388607,-0.19017 0.219108,-0.07028 0.496094,-0.07028 h 4.369761 v 1.074871 h -4.369761 q -0.21084,0 -0.322461,0.111621 -0.111621,0.111621 -0.111621,0.330729 v 2.90215 q 0,0.206705 0.111621,0.322461 0.115755,0.111621 0.322461,0.111621 h 3.3445 v -1.347722 h -2.860809 v -1.083139 h 3.39411 q 0.115755,0 0.214974,0.04548 0.09922,0.04134 0.169499,0.115755 0.07441,0.07441 0.115755,0.173633 0.04134,0.09509 0.04134,0.206706 z"
       id="path35-5" />
    <path
       style="-inkscape-font-specification:Audiowide;fill:url(#linearGradient112);fill-opacity:1"
       d="m -61.429688,16.822266 c -0.205801,0 -0.397019,0.02582 -0.572265,0.08203 -0.167588,0.05375 -0.321372,0.128655 -0.457031,0.224609 v -0.002 c -0.129373,0.09056 -0.242426,0.198513 -0.337891,0.320313 -0.09208,0.117494 -0.168212,0.242102 -0.226563,0.375 -0.05626,0.125348 -0.09853,0.254082 -0.126953,0.386718 v 0.0039 l -0.002,0.002 c -0.02468,0.126497 -0.03711,0.247499 -0.03711,0.365234 v 2.910156 c 0,0.205801 0.02629,0.399095 0.08203,0.576172 v 0.002 c 0.05332,0.166231 0.126575,0.318155 0.21875,0.453125 l 0.002,0.002 0.002,0.0039 c 0.09273,0.127904 0.199374,0.239194 0.320313,0.333984 l 0.002,0.002 0.002,0.002 c 0.115989,0.08778 0.237057,0.161073 0.365234,0.21875 h 0.002 0.002 c 0.12704,0.05577 0.254723,0.0984 0.384765,0.126953 h 0.0039 l 0.0039,0.002 c 0.128651,0.0245 0.251405,0.03711 0.36914,0.03711 h 3.876954 c 0.106931,0 0.212539,-0.01971 0.310546,-0.06055 0.09323,-0.03885 0.178884,-0.0949 0.25,-0.166016 0.07253,-0.07252 0.130414,-0.159082 0.169922,-0.253906 0.04084,-0.09801 0.06055,-0.203615 0.06055,-0.310547 v -2.423828 c 0,-0.103984 -0.01976,-0.20751 -0.06055,-0.302734 -0.03895,-0.09347 -0.09689,-0.178104 -0.167968,-0.25 -0.06877,-0.07192 -0.152631,-0.130577 -0.244141,-0.169922 -0.0012,-5.36e-4 -0.0027,5.29e-4 -0.0039,0 -0.09868,-0.04459 -0.205831,-0.06836 -0.314453,-0.06836 h -3.644532 v 1.583984 h 2.861328 v 0.847656 h -3.09375 c -0.08914,0 -0.121072,-0.01944 -0.144531,-0.04102 -0.02157,-0.02346 -0.04102,-0.05539 -0.04102,-0.144532 v -2.90039 c 0,-0.103619 0.02248,-0.137718 0.03906,-0.154297 0.01876,-0.01876 0.05004,-0.03906 0.146484,-0.03906 h 4.619141 V 16.82248 Z"
       id="path36-1"
       sodipodi:nodetypes="csccsccccssccccccccccccccsssssssccccsccccscssssccc" />
    <path
       style="-inkscape-font-specification:Audiowide;fill:url(#linearGradient113);fill-opacity:1"
       d="m -46.953156,19.064321 q 0,0.367937 -0.09095,0.657325 -0.09095,0.289388 -0.248047,0.51263 -0.152962,0.219108 -0.355534,0.376205 -0.202572,0.157096 -0.425814,0.260449 -0.219108,0.09922 -0.446484,0.144694 -0.223243,0.04547 -0.42168,0.04547 L -46.696841,23 h -1.661915 l -2.240691,-1.938901 h -0.77308 v -1.07487 h 2.430861 q 0.202571,-0.01654 0.367936,-0.08268 0.169499,-0.07028 0.289388,-0.186035 0.124024,-0.115756 0.19017,-0.276986 0.06614,-0.165365 0.06614,-0.376205 v -0.677995 q 0,-0.09095 -0.0248,-0.136426 -0.02067,-0.04961 -0.05788,-0.07028 -0.03307,-0.0248 -0.07441,-0.02894 -0.03721,-0.0041 -0.07028,-0.0041 h -3.547073 V 23 h -1.07487 v -5.386753 q 0,-0.111622 0.04134,-0.21084 0.04134,-0.09922 0.111621,-0.173633 0.07441,-0.07441 0.173633,-0.115756 0.09922,-0.04134 0.214974,-0.04134 h 4.080373 q 0.359668,0 0.607715,0.132292 0.248047,0.128158 0.401009,0.326595 0.157097,0.194304 0.223243,0.42168 0.07028,0.227376 0.07028,0.425814 z"
       id="path37-1" />
    <path
       style="-inkscape-font-specification:Audiowide;fill:url(#linearGradient107-7);fill-opacity:1;stroke:none;stroke-opacity:1"
       d="m -52.335938,16.822266 c -0.10693,0 -0.21254,0.01971 -0.310546,0.06055 -0.09482,0.03951 -0.181383,0.0974 -0.253907,0.169922 l -0.0039,0.002 -0.002,0.002 c -0.06814,0.07214 -0.121786,0.157907 -0.160156,0.25 -0.04036,0.09687 -0.06055,0.201362 -0.06055,0.30664 V 23.25 h 1.574219 v -1.939453 h 0.859375 L -48.451172,23.25 h 2.425781 l -2.339843,-2.023438 c 0.133418,-0.03362 0.26632,-0.06889 0.394531,-0.126953 l 0.002,-0.002 c 0.166489,-0.07708 0.325398,-0.173348 0.474609,-0.289062 0.155073,-0.120261 0.290856,-0.264635 0.40625,-0.429688 v -0.002 c 0.120448,-0.171496 0.215922,-0.365999 0.283203,-0.580078 0.06972,-0.221837 0.101563,-0.466531 0.101563,-0.732422 v -0.685547 c 0,-0.161806 -0.02912,-0.328812 -0.08203,-0.5 -0.05309,-0.180393 -0.14297,-0.349317 -0.263672,-0.5 l -0.002,-0.002 c -0.125765,-0.162445 -0.289777,-0.294997 -0.482422,-0.394531 -0.208924,-0.110601 -0.453613,-0.160156 -0.722656,-0.160156 z m 0.783204,1.574218 h 3.27539 v 0.667969 c 0,0.114419 -0.01834,0.206976 -0.04883,0.283203 -0.03117,0.0754 -0.07274,0.135079 -0.128906,0.1875 l -0.002,0.002 c -0.05576,0.05384 -0.125486,0.09853 -0.212891,0.134766 -0.08351,0.03299 -0.180788,0.05529 -0.292969,0.06445 h -2.589843 z m 3.339843,0.002 h 0.002 v 0.002 c -7.29e-4,-7.3e-5 -0.0012,-0.0018 -0.002,-0.002 z"
       id="path38-0"
       sodipodi:nodetypes="cscccsscccccccccsccsssccccccccsccccccccccc" />
    <path
       style="-inkscape-font-specification:Audiowide;fill:url(#linearGradient114);fill-opacity:1"
       d="m -39.462565,23 h -1.07487 v -5.928323 h 1.07487 z"
       id="path39-8" />
    <path
       style="-inkscape-font-specification:Audiowide;fill:url(#linearGradient97-8);fill-opacity:1"
       d="M -40.787109,16.822266 V 23.25 h 1.574218 v -6.427734 z"
       id="path40-5"
       sodipodi:nodetypes="ccccc" />
    <path
       style="-inkscape-font-specification:Audiowide;fill:url(#linearGradient115);fill-opacity:1"
       d="m -27.944888,20.51953 q 0,0.541569 -0.190169,0.996322 -0.186036,0.454753 -0.516765,0.785482 -0.330729,0.326596 -0.785482,0.512631 Q -29.892057,23 -30.425358,23 h -2.902149 q -0.115756,0 -0.214974,-0.04134 -0.09922,-0.04134 -0.173633,-0.111621 -0.07028,-0.07441 -0.111622,-0.173633 -0.04134,-0.09922 -0.04134,-0.214974 v -4.845184 q 0,-0.111622 0.04134,-0.21084 0.04134,-0.09922 0.111622,-0.173633 0.07441,-0.07441 0.173633,-0.115756 0.09922,-0.04134 0.214974,-0.04134 h 2.902149 q 0.533301,0 0.988054,0.186036 0.454753,0.186035 0.785482,0.516764 0.330729,0.326595 0.516765,0.785482 0.190169,0.454753 0.190169,0.992188 z m -1.07487,-0.967383 q 0,-0.314193 -0.103353,-0.574642 -0.09922,-0.260449 -0.285254,-0.442351 -0.186035,-0.186035 -0.446485,-0.285254 -0.256315,-0.103352 -0.570508,-0.103352 h -2.368848 v 3.778582 h 2.368848 q 0.314193,0 0.570508,-0.09922 0.26045,-0.103353 0.446485,-0.285254 0.186035,-0.186035 0.285254,-0.44235 0.103353,-0.26045 0.103353,-0.578777 z"
       id="path41-0" />
    <path
       style="-inkscape-font-specification:Audiowide;fill:url(#linearGradient109-2);fill-opacity:1"
       d="m -33.328125,16.822266 c -0.106931,0 -0.21254,0.01971 -0.310547,0.06055 -0.09482,0.03951 -0.181383,0.0974 -0.253906,0.169922 l -0.002,0.002 -0.0039,0.002 c -0.06814,0.07214 -0.121785,0.157906 -0.160156,0.25 -0.04036,0.09687 -0.06055,0.201362 -0.06055,0.30664 v 4.845703 c 0,0.106931 0.01971,0.21254 0.06055,0.310547 0.03837,0.09209 0.09202,0.177857 0.160156,0.25 l 0.0059,0.0039 0.0039,0.0059 c 0.07214,0.06814 0.157907,0.121786 0.25,0.160156 0.09801,0.04084 0.203615,0.06055 0.310547,0.06055 h 2.902344 c 0.384603,0 0.749118,-0.06809 1.083984,-0.205078 0.330963,-0.135394 0.620873,-0.325098 0.865234,-0.566406 h 0.002 c 0.244424,-0.244425 0.434672,-0.535625 0.570312,-0.867188 0.140408,-0.335758 0.208984,-0.701489 0.208984,-1.091797 v -0.966797 c 0,-0.386436 -0.06965,-0.751382 -0.208984,-1.085937 -0.135293,-0.333722 -0.325764,-0.627115 -0.570312,-0.869141 -0.244425,-0.244424 -0.535625,-0.436626 -0.867188,-0.572265 -0.334867,-0.136992 -0.69938,-0.203125 -1.083984,-0.203125 z m 0.783203,1.574218 h 2.119141 c 0.18205,0 0.338544,0.03029 0.476562,0.08594 h 0.0039 l 0.002,0.002 c 0.143563,0.05469 0.258933,0.130027 0.357421,0.228516 h 0.002 v 0.002 c 0.09726,0.0951 0.172028,0.208411 0.226562,0.351562 l 0.002,0.002 v 0.002 c 0.05619,0.141598 0.08594,0.300373 0.08594,0.482422 v 0.966797 c 0,0.185162 -0.02992,0.345152 -0.08594,0.486328 v 0.002 c -0.05416,0.139914 -0.130307,0.254792 -0.228515,0.353516 -3.79e-4,3.7e-4 -0.0016,-3.69e-4 -0.002,0 -3.82e-4,3.84e-4 3.84e-4,0.0016 0,0.002 -0.09825,0.09558 -0.215669,0.171125 -0.359375,0.228516 -0.138806,0.05373 -0.297322,0.08398 -0.480468,0.08398 h -2.119141 z"
       id="path42-6"
       sodipodi:nodetypes="cssccsssscccsssscccssccscccscccccccccssccscccscc" />
    <path
       style="-inkscape-font-specification:Audiowide;fill:url(#linearGradient116);fill-opacity:1"
       d="m -57.048241,33 h -4.903062 q -0.115755,0 -0.214974,-0.04134 -0.09922,-0.04134 -0.173633,-0.111621 -0.07028,-0.07441 -0.111621,-0.173633 -0.04134,-0.09922 -0.04134,-0.214974 v -5.386754 h 1.07487 v 4.853453 h 4.369761 z"
       id="path43-4" />
    <path
       style="-inkscape-font-specification:Audiowide;fill:url(#linearGradient105-9);fill-opacity:1"
       d="m -62.742188,26.822266 v 5.636718 c 10e-7,0.106931 0.01971,0.21254 0.06055,0.310547 0.03837,0.0921 0.09202,0.177856 0.160157,0.25 l 0.0039,0.0039 0.0059,0.0059 c 0.07214,0.06814 0.157907,0.121786 0.25,0.160156 0.09801,0.04084 0.203616,0.06055 0.310547,0.06055 h 5.152344 v -1.574219 h -4.369141 v -4.853515 z"
       id="path44-6"
       sodipodi:nodetypes="ccscccssccccc" />
    <path
       style="-inkscape-font-specification:Audiowide;fill:url(#linearGradient117);fill-opacity:1"
       d="m -46.79606,30.602213 q 0,0.541569 -0.186035,0.996322 -0.186035,0.454752 -0.516765,0.785482 -0.330729,0.330729 -0.785482,0.516764 -0.450618,0.181901 -0.983919,0.181901 h -1.455209 q -0.533301,0 -0.988054,-0.181901 -0.454753,-0.186035 -0.785482,-0.516764 -0.33073,-0.33073 -0.520899,-0.785482 -0.186035,-0.454753 -0.186035,-0.996322 v -1.132748 q 0,-0.537435 0.186035,-0.992188 0.190169,-0.458887 0.520899,-0.785482 0.330729,-0.33073 0.785482,-0.516765 0.454753,-0.186035 0.988054,-0.186035 h 1.455209 q 0.533301,0 0.983919,0.186035 0.454753,0.186035 0.785482,0.516765 0.33073,0.326595 0.516765,0.785482 0.186035,0.454753 0.186035,0.992188 z m -1.07487,-1.132748 q 0,-0.318327 -0.103353,-0.574642 -0.09922,-0.26045 -0.285254,-0.442351 -0.181901,-0.186035 -0.442351,-0.285254 -0.256315,-0.103353 -0.566373,-0.103353 h -1.455209 q -0.314193,0 -0.574642,0.103353 -0.256316,0.09922 -0.442351,0.285254 -0.186035,0.181901 -0.289388,0.442351 -0.09922,0.256315 -0.09922,0.574642 v 1.132748 q 0,0.318327 0.09922,0.578776 0.103353,0.256315 0.289388,0.44235 0.186035,0.181901 0.442351,0.285254 0.260449,0.09922 0.574642,0.09922 h 1.44694 q 0.314193,0 0.570508,-0.09922 0.26045,-0.103353 0.446485,-0.285254 0.186035,-0.186035 0.285254,-0.44235 0.103353,-0.260449 0.103353,-0.578776 z"
       id="path45-2" />
    <path
       style="-inkscape-font-specification:Audiowide;fill:url(#linearGradient103-6);fill-opacity:1"
       d="m -50.722656,26.738281 c -0.384604,0 -0.749118,0.06809 -1.083985,0.205078 -0.330699,0.135286 -0.621201,0.3268 -0.865234,0.570313 -0.245094,0.24203 -0.4378,0.533289 -0.576172,0.867187 l -0.002,0.002 c -0.137091,0.335113 -0.203125,0.698802 -0.203125,1.085938 v 1.132812 c 0,0.389672 0.06593,0.756439 0.203125,1.091797 h 0.002 v 0.002 c 0.138359,0.330858 0.330162,0.621178 0.574219,0.865235 0.244424,0.244424 0.535624,0.436626 0.867187,0.572265 h 0.002 c 0.334458,0.133783 0.698074,0.199219 1.082032,0.199219 h 1.455078 c 0.383958,0 0.744015,-0.06514 1.076172,-0.199219 h 0.002 c 0.331563,-0.135639 0.622763,-0.327841 0.867187,-0.572265 0.244425,-0.244425 0.436627,-0.535625 0.572266,-0.867188 0.137192,-0.335358 0.203125,-0.702125 0.203125,-1.091797 V 29.46875 c 0,-0.387136 -0.06603,-0.750825 -0.203125,-1.085938 -0.135526,-0.334066 -0.327448,-0.625015 -0.57236,-0.867187 -0.244424,-0.244425 -0.535624,-0.436626 -0.867187,-0.572266 -0.332567,-0.137298 -0.693521,-0.205078 -1.078125,-0.205078 z m 0,1.576176 h 1.455078 c 0.178927,0 0.334206,0.02816 0.472656,0.08398 l 0.002,0.002 h 0.002 c 0.143152,0.05453 0.258415,0.1293 0.353516,0.226562 l 0.002,0.002 0.002,0.002 c 0.09726,0.0951 0.172028,0.210363 0.226563,0.353516 v 0.002 0.002 c 0.05548,0.137586 0.08594,0.295307 0.08594,0.480469 v 1.132812 c 0,0.185162 -0.02992,0.345153 -0.08594,0.486329 v 0.002 c -0.05416,0.139915 -0.128351,0.256744 -0.226563,0.355468 -0.09925,0.09704 -0.21937,0.172587 -0.365234,0.230469 -0.138412,0.05332 -0.296093,0.08203 -0.478516,0.08203 h -1.445312 c -0.181716,0 -0.340879,-0.02861 -0.482422,-0.08203 -0.142254,-0.05736 -0.259868,-0.131702 -0.359375,-0.228515 l -0.002,-0.002 c -0.09788,-0.09838 -0.173721,-0.214259 -0.230469,-0.353515 v -0.002 c -0.05368,-0.14157 -0.08203,-0.30276 -0.08203,-0.488282 v -1.133 c 0,-0.185514 0.02887,-0.344413 0.08203,-0.482422 v -0.002 c 0.05722,-0.143601 0.132923,-0.258138 0.230469,-0.353516 h 0.002 v -0.002 c 0.09914,-0.09914 0.21661,-0.174007 0.357422,-0.228515 h 0.002 c 0.141597,-0.05619 0.300372,-0.08594 0.482422,-0.08594 z"
       id="path46-5"
       sodipodi:nodetypes="sscccsscccsccssccsssscccssscccccccccssccccssccsccsscccccccccs" />
    <path
       style="-inkscape-font-specification:Audiowide;fill:url(#linearGradient118);fill-opacity:1"
       d="m -37.230142,33 h -3.877801 q -0.148828,0 -0.322461,-0.03307 -0.169499,-0.03721 -0.338998,-0.111621 -0.165364,-0.07441 -0.318327,-0.190169 -0.152962,-0.11989 -0.272851,-0.285254 -0.115756,-0.169499 -0.186036,-0.388607 -0.07028,-0.223243 -0.07028,-0.500228 V 28.58063 q 0,-0.148828 0.03307,-0.318327 0.03721,-0.173633 0.111621,-0.338998 0.07442,-0.169498 0.194304,-0.322461 0.119889,-0.152962 0.285254,-0.268717 0.169499,-0.11989 0.388607,-0.19017 0.219108,-0.07028 0.496094,-0.07028 h 3.877801 v 1.074871 h -3.877801 q -0.21084,0 -0.322461,0.111621 -0.111621,0.111621 -0.111621,0.330729 v 2.90215 q 0,0.206705 0.111621,0.322461 0.115755,0.111621 0.322461,0.111621 h 3.877801 z"
       id="path47-8" />
    <path
       style="-inkscape-font-specification:Audiowide;fill:url(#linearGradient95-0);fill-opacity:1"
       d="m -41.107422,26.822266 c -0.205801,0 -0.397019,0.02582 -0.572266,0.08203 -0.167587,0.05375 -0.321371,0.128655 -0.457031,0.224609 v -0.002 c -0.129372,0.09056 -0.242426,0.198513 -0.33789,0.320313 -0.09152,0.116775 -0.166402,0.241049 -0.22461,0.373046 -0.05664,0.125883 -0.100352,0.255431 -0.128906,0.388672 v 0.0039 l -0.002,0.002 c -0.02468,0.126497 -0.03711,0.247499 -0.03711,0.365234 v 2.910156 c 0,0.205801 0.02629,0.399095 0.08203,0.576172 v 0.002 c 0.05332,0.166231 0.126574,0.318155 0.21875,0.453125 l 0.002,0.002 0.002,0.0039 c 0.09273,0.127904 0.199374,0.239194 0.320312,0.333984 l 0.002,0.002 0.002,0.002 c 0.115989,0.08778 0.239009,0.161073 0.367187,0.21875 h 0.002 c 0.127041,0.05577 0.254724,0.0984 0.384766,0.126953 h 0.0039 l 0.0039,0.002 c 0.128652,0.0245 0.251406,0.03711 0.369141,0.03711 h 4.126953 v -1.574219 h -4.126953 c -0.08914,0 -0.121072,-0.01944 -0.144531,-0.04102 -0.02158,-0.02346 -0.04102,-0.05539 -0.04102,-0.144532 v -2.90039 c 0,-0.103619 0.02248,-0.137718 0.03906,-0.154297 0.01876,-0.01876 0.05004,-0.03906 0.146484,-0.03906 h 4.126953 v -1.574218 z"
       id="path48-6"
       sodipodi:nodetypes="csccsccccsscccccccccccccsccscssssccc" />
    <path
       style="-inkscape-font-specification:Audiowide;fill:url(#linearGradient119);fill-opacity:1"
       d="m -26.605891,33 h -1.525488 l -2.418458,-2.422592 h -0.756544 v -1.083139 h 0.756544 l 2.418458,-2.422592 h 1.525488 l -3.046843,2.964162 z m -5.130438,0 h -1.07487 v -5.928323 h 1.07487 z"
       id="path49-2" />
    <path
       style="-inkscape-font-specification:Audiowide;fill:url(#linearGradient99-1);fill-opacity:1"
       d="M -33.060547,26.822266 V 33.25 h 1.574219 v -2.421875 h 0.832031 L -28.234375,33.25 h 2.244141 l -3.304688,-3.214844 3.304688,-3.21289 h -2.244141 l -2.419922,2.421875 h -0.832031 v -2.421875 z"
       id="path50-8"
       sodipodi:nodetypes="cccccccccccccc" />
    <path
       style="color:#000000;overflow:visible;fill:none;stroke:url(#linearGradient211);stroke-width:0.999998;stroke-linecap:round;stroke-linejoin:round;stroke-dasharray:none;paint-order:stroke fill markers"
       d="M 125,70.000002 V 130"
       id="path8"
       sodipodi:nodetypes="cc" />
    <text
       xml:space="preserve"
       style="font-size:8.46667px;line-height:1.25;font-family:Audiowide;-inkscape-font-specification:'Audiowide, Normal';text-align:center;text-decoration:none;text-decoration-line:none;text-decoration-color:#000000;letter-spacing:0px;word-spacing:0px;text-anchor:middle;fill:#000000;stroke:#000000;stroke-width:0;stroke-linecap:butt;stroke-linejoin:miter;stroke-opacity:1;stop-color:#000000"
       x="-45"
       y="47.806332"
       id="text119"><tspan
         sodipodi:role="line"
         id="tspan119"
         style="stroke-width:0"
         x="-45"
         y="47.806332">GRID</tspan><tspan
         sodipodi:role="line"
         style="stroke-width:0"
         x="-45"
         y="58.389668"
         id="tspan120">LOCK</tspan></text>
    <path
       style="color:#000000;overflow:visible;fill:none;stroke:url(#linearGradient215);stroke-width:0.999998;stroke-linecap:round;stroke-linejoin:round;stroke-dasharray:none;paint-order:stroke fill markers"
       d="M 145,70.000004 V 130"
       id="path8-9"
       sodipodi:nodetypes="cc" />
    <path
       style="color:#000000;overflow:visible;fill:none;stroke:url(#linearGradient240);stroke-width:0.999998;stroke-linecap:round;stroke-linejoin:round;stroke-dasharray:none;paint-order:stroke fill markers"
       d="M 165,70.000002 V 130"
       id="path8-9-4"
       sodipodi:nodetypes="cc" />
    <path
       style="color:#000000;overflow:visible;fill:none;stroke:url(#linearGradient217);stroke-width:0.999998;stroke-linecap:round;stroke-linejoin:round;stroke-dasharray:none;paint-order:stroke fill markers"
       d="M 105,70.000006 V 130"
       id="path8-9-3-4"
       sodipodi:nodetypes="cc" />
    <path
       style="color:#000000;overflow:visible;fill:none;stroke:url(#linearGradient218);stroke-width:0.999998;stroke-linecap:round;stroke-linejoin:round;stroke-dasharray:none;paint-order:stroke fill markers"
       d="M 85.000003,70.000006 V 130"
       id="path8-9-3-9"
       sodipodi:nodetypes="cc" />
    <path
       style="color:#000000;overflow:visible;fill:none;stroke:url(#linearGradient219);stroke-width:0.999998;stroke-linecap:round;stroke-linejoin:round;stroke-dasharray:none;paint-order:stroke fill markers"
       d="M 179.99999,80.000002 H 69.999998"
       id="path8-9-3-8"
       sodipodi:nodetypes="cc" />
    <path
       style="color:#000000;overflow:visible;fill:none;stroke:url(#linearGradient241);stroke-width:0.999998;stroke-linecap:round;stroke-linejoin:round;stroke-dasharray:none;paint-order:stroke fill markers"
       d="M 179.99999,100 H 69.999998"
       id="path8-9-3-8-2"
       sodipodi:nodetypes="cc" />
    <path
       style="color:#000000;overflow:visible;fill:none;stroke:url(#linearGradient242);stroke-width:0.999998;stroke-linecap:round;stroke-linejoin:round;stroke-dasharray:none;paint-order:stroke fill markers"
       d="M 179.99999,120 H 69.999998"
       id="path8-9-3-8-9"
       sodipodi:nodetypes="cc" />
  </g>
</svg>
