<?xml version="1.0" encoding="UTF-8" standalone="no"?>
<!-- Created with Inkscape (http://www.inkscape.org/) -->

<svg
   id="svg2"
   version="1.1"
   inkscape:version="1.2.1 (9c6d41e410, 2022-07-14, custom)"
   xml:space="preserve"
   width="646.13336"
   height="810"
   viewBox="0 0 646.13336 810"
   sodipodi:docname="student-b.svg"
   inkscape:export-filename="/media/sdb1/_GRAFIKA/Publicdomainq/publicdomainq-woman_homemaker.png"
   inkscape:export-xdpi="88.867104"
   inkscape:export-ydpi="88.867104"
   xmlns:inkscape="http://www.inkscape.org/namespaces/inkscape"
   xmlns:sodipodi="http://sodipodi.sourceforge.net/DTD/sodipodi-0.dtd"
   xmlns="http://www.w3.org/2000/svg"
   xmlns:svg="http://www.w3.org/2000/svg"
   xmlns:rdf="http://www.w3.org/1999/02/22-rdf-syntax-ns#"
   xmlns:cc="http://creativecommons.org/ns#"
   xmlns:dc="http://purl.org/dc/elements/1.1/"><title
     id="title7598">Woman homemaker</title><metadata
     id="metadata8"><rdf:RDF><cc:Work
         rdf:about=""><dc:format>image/svg+xml</dc:format><dc:type
           rdf:resource="http://purl.org/dc/dcmitype/StillImage" /><dc:title>Woman homemaker</dc:title><cc:license
           rdf:resource="http://creativecommons.org/publicdomain/zero/1.0/" /><dc:subject><rdf:Bag><rdf:li>woman</rdf:li><rdf:li>female</rdf:li><rdf:li>homemaker</rdf:li><rdf:li>cook</rdf:li><rdf:li>cooking</rdf:li><rdf:li>food</rdf:li><rdf:li>apron</rdf:li><rdf:li>positive looking</rdf:li></rdf:Bag></dc:subject><dc:description>This image was adapted from a picture posted to publicdomainq.net. All of the images on these sites are in the public domain i.e. CC0. This site is only in Japanese but can be easily navigated with Google Translate.</dc:description></cc:Work><cc:License
         rdf:about="http://creativecommons.org/publicdomain/zero/1.0/"><cc:permits
           rdf:resource="http://creativecommons.org/ns#Reproduction" /><cc:permits
           rdf:resource="http://creativecommons.org/ns#Distribution" /><cc:permits
           rdf:resource="http://creativecommons.org/ns#DerivativeWorks" /></cc:License></rdf:RDF></metadata><defs
     id="defs6" /><sodipodi:namedview
     pagecolor="#ffffff"
     bordercolor="#666666"
     borderopacity="1"
     objecttolerance="10"
     gridtolerance="10"
     guidetolerance="10"
     inkscape:pageopacity="0"
     inkscape:pageshadow="2"
     inkscape:window-width="1920"
     inkscape:window-height="1125"
     id="namedview4"
     showgrid="false"
     inkscape:zoom="0.57467533"
     inkscape:cx="246.22599"
     inkscape:cy="263.62712"
     inkscape:window-x="0"
     inkscape:window-y="0"
     inkscape:window-maximized="1"
     inkscape:current-layer="g12"
     fit-margin-top="5"
     fit-margin-left="5"
     fit-margin-bottom="5"
     fit-margin-right="5"
     inkscape:showpageshadow="0"
     inkscape:pagecheckerboard="1"
     inkscape:deskcolor="#d1d1d1" /><g
     id="g10"
     inkscape:groupmode="layer"
     inkscape:label="ink_ext_XXXXXX"
     transform="matrix(1.25,0,0,-1.25,298.19389,954.09877)"><g
       id="g12"
       transform="matrix(0.40252367,0,0,0.40252367,-234.56085,119.31898)"><path
         d="m 934.906,621.813 c 116.214,-2.274 143.844,64.316 143.844,64.316 l 15.89,-87.899 c 49.79,35.997 94.25,146.114 85.91,232.422 l 35.33,171.988 c 144.68,366.7 -152.79,469.3 -152.79,469.3 -39.85,107.86 -409.344,199.13 -597.781,-39.8 -119.075,-150.97 -74.746,-379.88 -74.746,-379.88 l 33.132,-186.451 c 6.887,-47.532 16.731,-150.547 -16.718,-203.711 0,0 74.543,10.086 84.394,32.832 0,0 13.926,-34.543 105.442,-46.016"
         style="fill:#85483c;fill-opacity:1;fill-rule:nonzero;stroke:none"
         id="path14"
         inkscape:connector-curvature="0" /><path
         d="m 1120.57,7 c 30.77,315 9.07,459.469 -47.41,474.91 -27.89,7.629 -191.867,53.43 -245.812,73.75 l -118.907,6.469 c -43.554,-3.578 -112.175,20.293 -112.175,20.293 l -148.039,-78.672 15,-85 c 0,0 43.378,-214.852 73.761,-411.75 l 583.582,0"
         style="fill:#660080;fill-opacity:1;fill-rule:nonzero;stroke:none"
         id="path16"
         inkscape:connector-curvature="0" /><path
         d="M 511.383,161.012 C 520.551,112.672 528.676,50.6484 536.988,7 l 583.582,0 c 11.53,95.711 13.92,197.941 11.64,256.512 C 1039.71,97.6719 595.551,64.3516 511.383,161.012"
         style="fill:#660080;fill-opacity:1;fill-rule:nonzero;stroke:none"
         id="path18"
         inkscape:connector-curvature="0" /><path
         d="M 971.695,516.379 C 932.836,412.43 828.043,394.762 742.418,422.891 c -98.332,45 -114.375,144.371 -114.375,144.371 l 90.75,-6.84 106.973,-4.762 141.777,-39.781"
         style="fill:#fcd0b4;fill-opacity:1;fill-rule:nonzero;stroke:none"
         id="path20"
         inkscape:connector-curvature="0" /><path
         d="m 722.953,591.121 -4.754,-50.941 c 0,0 28.75,-39.168 54.16,-39.168 37.5,0 52.95,51.476 52.95,51.476 l -2.18,40.731"
         style="fill:#fcd0b4;fill-opacity:1;fill-rule:nonzero;stroke:none"
         id="path22"
         inkscape:connector-curvature="0" /><path
         d="m 727.223,629.352 95.906,1.25 0.84,-48.782 c 0,0 -21.746,-70.808 -103.418,-34.968 l 6.672,82.5"
         style="fill:#da907b;fill-opacity:1;fill-rule:nonzero;stroke:none"
         id="path24"
         inkscape:connector-curvature="0" /><path
         d="m 1065.99,1466.59 c -39.84,107.86 -412.244,204.48 -600.681,-34.45 -119.075,-150.97 -74.746,-370.5 -74.746,-370.5 l 16.25,3.75 c 0,0 -15.051,278.97 159.57,407.29 220,161.66 499.607,-6.09 499.607,-6.09"
         style="fill:#e7b39d;fill-opacity:1;fill-rule:nonzero;stroke:none"
         id="path26"
         inkscape:connector-curvature="0" /><path
         d="m 461.09,1035.05 c 0,0 -17.559,40.43 -56.262,31.08 -80.711,-19.47 -66.687,-192.567 63,-215.985"
         style="fill:#fcd0b4;fill-opacity:1;fill-rule:nonzero;stroke:none"
         id="path28"
         inkscape:connector-curvature="0" /><path
         d="m 1135.24,989.781 c 0,0 22.74,37.769 59.87,23.419 77.44,-29.95 45.09,-199.97 -88.6,-205.977"
         style="fill:#fcd0b4;fill-opacity:1;fill-rule:nonzero;stroke:none"
         id="path30"
         inkscape:connector-curvature="0" /><path
         d="m 1134.48,1027.57 c -1.24,-66.429 -10.73,-172.035 -45.07,-255.961 -64.26,-156.984 -237.785,-182.05 -319.023,-176.679 -81.242,5.371 -249.961,53.086 -292.981,217.168 -24.304,92.703 -17.859,205.792 -9.636,270.552 134.753,304.1 513.406,252.74 513.406,252.74 l 64.384,20.62 -31.64,-32.81 c 0,0 24.96,-162.83 120.56,-295.63"
         style="fill:#fcd0b4;fill-opacity:1;fill-rule:nonzero;stroke:none"
         id="path32"
         inkscape:connector-curvature="0" /><path
         d="m 707.574,991.012 c -3.273,-49.551 -36.719,-87.676 -74.707,-85.164 -37.988,2.519 -66.152,44.715 -62.871,94.262 3.281,49.55 36.758,87.69 74.734,85.17 37.989,-2.51 66.125,-44.72 62.844,-94.268"
         style="fill:#ffffff;fill-opacity:1;fill-rule:nonzero;stroke:none"
         id="path34"
         inkscape:connector-curvature="0" /><path
         d="m 1026.07,969.949 c -3.27,-49.551 -36.718,-87.687 -74.699,-85.168 -37.988,2.512 -66.133,44.719 -62.859,94.27 3.281,49.549 36.738,87.679 74.726,85.159 37.982,-2.51 66.112,-44.71 62.832,-94.261"
         style="fill:#ffffff;fill-opacity:1;fill-rule:nonzero;stroke:none"
         id="path36"
         inkscape:connector-curvature="0" /><path
         d="m 696,978.777 c -2.234,-33.75 -23.035,-59.863 -46.445,-58.312 -23.426,1.555 -40.606,30.168 -38.367,63.918 2.226,33.757 23.027,59.867 46.453,58.307 23.41,-1.54 40.586,-30.16 38.359,-63.913"
         style="fill:#231f20;fill-opacity:1;fill-rule:nonzero;stroke:none"
         id="path38"
         inkscape:connector-curvature="0" /><path
         d="m 897.203,965.465 c -2.238,-33.75 14.942,-62.371 38.367,-63.926 23.418,-1.543 44.211,24.563 46.446,58.313 2.226,33.757 -14.942,62.368 -38.36,63.928 -23.426,1.55 -44.226,-24.565 -46.453,-58.315"
         style="fill:#231f20;fill-opacity:1;fill-rule:nonzero;stroke:none"
         id="path40"
         inkscape:connector-curvature="0" /><path
         d="m 593.98,898.258 c -1.027,-15.496 -28.019,-26.348 -60.273,-24.219 -32.266,2.141 -57.598,16.445 -56.574,31.953 1.027,15.508 28.019,26.367 60.285,24.231 32.266,-2.141 57.586,-16.446 56.562,-31.965"
         style="fill:#f0b18a;fill-opacity:1;fill-rule:nonzero;stroke:none"
         id="path42"
         inkscape:connector-curvature="0" /><path
         d="m 1102.61,864.617 c -1.02,-15.508 -28.02,-26.359 -60.28,-24.219 -32.28,2.137 -57.6,16.446 -56.572,31.942 1.023,15.519 28.002,26.367 60.282,24.23 32.27,-2.129 57.6,-16.445 56.57,-31.953"
         style="fill:#f0b18a;fill-opacity:1;fill-rule:nonzero;stroke:none"
         id="path44"
         inkscape:connector-curvature="0" /><path
         d="m 696.598,999.285 c -0.461,-6.914 -6.438,-12.148 -13.352,-11.691 -6.914,0.461 -12.156,6.426 -11.699,13.356 0.461,6.91 6.445,12.15 13.359,11.7 6.914,-0.45 12.149,-6.44 11.692,-13.365"
         style="fill:#ffffff;fill-opacity:1;fill-rule:nonzero;stroke:none"
         id="path46"
         inkscape:connector-curvature="0" /><path
         d="m 980.094,980.535 c -0.461,-6.926 -6.446,-12.148 -13.36,-11.691 -6.925,0.449 -12.168,6.426 -11.711,13.34 0.461,6.925 6.446,12.168 13.372,11.711 6.914,-0.461 12.156,-6.446 11.699,-13.36"
         style="fill:#ffffff;fill-opacity:1;fill-rule:nonzero;stroke:none"
         id="path48"
         inkscape:connector-curvature="0" /><path
         d="m 461.832,904.852 -1.652,63.445 c 0,0 -13.797,40.203 -38.582,47.913 -31.914,9.94 -36.035,-42.276 -15.703,-73.245 31.093,-47.43 55.937,-38.113 55.937,-38.113"
         style="fill:#da907b;fill-opacity:1;fill-rule:nonzero;stroke:none"
         id="path50"
         inkscape:connector-curvature="0" /><path
         d="m 1122.06,861.168 10,62.687 c 0,0 18.97,38.036 44.56,42.403 32.95,5.652 30.13,-46.653 5.91,-74.668 -37.07,-42.922 -60.47,-30.422 -60.47,-30.422"
         style="fill:#da907b;fill-opacity:1;fill-rule:nonzero;stroke:none"
         id="path52"
         inkscape:connector-curvature="0" /><path
         d="m 649.34,1062.9 c 15.93,-1.06 30.93,-4.94 44.59,-10.95 -11.375,19.18 -28.836,31.99 -49.2,33.33 -22.996,1.52 -44.257,-11.89 -58.242,-33.67 18.867,8.53 40.325,12.77 62.852,11.29"
         style="fill:#d8e5f6;fill-opacity:1;fill-rule:nonzero;stroke:none"
         id="path54"
         inkscape:connector-curvature="0" /><path
         d="m 956.156,1042.59 c -15.926,1.06 -31.297,-0.82 -45.644,-4.96 13.801,17.5 32.804,27.91 53.164,26.56 23,-1.53 42.304,-17.63 53.304,-41.06 -17.589,10.94 -38.292,17.98 -60.824,19.46"
         style="fill:#d8e5f6;fill-opacity:1;fill-rule:nonzero;stroke:none"
         id="path56"
         inkscape:connector-curvature="0" /><path
         d="m 514.098,1448.77 c 98.847,-40.63 165.976,-45.45 203.953,-42.76 25.519,1.8 12.793,11.72 1.406,14.5 -117.098,28.61 -149.441,76.44 -149.441,76.44 l -55.918,-48.18"
         style="fill:#e7b39d;fill-opacity:1;fill-rule:nonzero;stroke:none"
         id="path58"
         inkscape:connector-curvature="0" /><path
         d="m 1087.23,1456.01 c 0,0 180.83,-102.5 151.66,-380.83 0,0 23.34,70.83 16.67,169.17 -4.18,61.64 -39.83,128.53 -83.33,163.33 -50,40 -85,48.33 -85,48.33"
         style="fill:#e7b39d;fill-opacity:1;fill-rule:nonzero;stroke:none"
         id="path60"
         inkscape:connector-curvature="0" /><path
         d="m 191.605,1158.54 -36.25,68.12 c 0,0 -29.589,-2.72 -61.4527,12.59 -27.8828,13.38 -82.8632,63.65 -86.4648,102.39 -2.5,26.87 5.8281,46.46 21.25,58.12 8.3281,25 26.9531,48.31 42.6172,48.95 5.0976,21.29 35.9253,37.95 53.4253,36.08 17.922,22.71 45.696,18.9 59.641,5.81 22.93,-21.55 34.902,-42.6 34.902,-42.6 23.536,-13.7 39.864,-43.67 39.207,-74.46 -0.917,-42.84 -23.496,-87.84 -23.496,-87.84 l 29.746,-59.04"
         style="fill:#fcd0b4;fill-opacity:1;fill-rule:nonzero;stroke:none"
         id="path62"
         inkscape:connector-curvature="0" /><path
         d="m 191.605,1158.54 -36.25,68.12 c 0,0 -29.589,-2.72 -61.4527,12.59 -27.8828,13.38 -82.8632,63.65 -86.4648,102.39 -2.5,26.87 5.8281,46.46 21.25,58.12 8.3281,25 26.9531,48.31 42.6172,48.95 5.0976,21.29 35.9253,37.95 53.4253,36.08 17.922,22.71 45.696,18.9 59.641,5.81 22.93,-21.55 34.902,-42.6 34.902,-42.6 23.536,-13.7 39.864,-43.67 39.207,-74.46 -0.917,-42.84 -23.496,-87.84 -23.496,-87.84 l 29.746,-59.04"
         style="fill:none;stroke:#231f20;stroke-width:14;stroke-linecap:round;stroke-linejoin:round;stroke-miterlimit:10;stroke-dasharray:none;stroke-opacity:1"
         id="path64"
         inkscape:connector-curvature="0" /><path
         d="m 102.055,1292.28 48.84,31.75 6.511,18.72 17.102,6.52 9.765,-43.15 -82.218,-13.84"
         style="fill:#da907b;fill-opacity:1;fill-rule:nonzero;stroke:none"
         id="path66"
         inkscape:connector-curvature="0" /><path
         d="m 218.109,1449.18 c -22.839,7.77 -78.757,9.76 -87.82,2.49 -24.172,-19.39 21.297,-46.94 57.285,-49.85 0,0 -20.558,-37 -1.476,-103.57"
         style="fill:none;stroke:#231f20;stroke-width:14;stroke-linecap:round;stroke-linejoin:round;stroke-miterlimit:10;stroke-dasharray:none;stroke-opacity:1"
         id="path68"
         inkscape:connector-curvature="0" /><path
         d="m 32.4375,1394.76 75.6915,-85.15"
         style="fill:none;stroke:#231f20;stroke-width:14;stroke-linecap:round;stroke-linejoin:round;stroke-miterlimit:10;stroke-dasharray:none;stroke-opacity:1"
         id="path70"
         inkscape:connector-curvature="0" /><path
         d="M 72.2305,1446.04 153.238,1344.13"
         style="fill:none;stroke:#231f20;stroke-width:14;stroke-linecap:round;stroke-linejoin:round;stroke-miterlimit:10;stroke-dasharray:none;stroke-opacity:1"
         id="path72"
         inkscape:connector-curvature="0" /><path
         d="m 125.309,1482.73 16.296,-25.44"
         style="fill:none;stroke:#231f20;stroke-width:14;stroke-linecap:round;stroke-linejoin:round;stroke-miterlimit:10;stroke-dasharray:none;stroke-opacity:1"
         id="path74"
         inkscape:connector-curvature="0" /><path
         d="M 825.766,555.66 C 880.492,540.309 1048.5,495.27 1075.21,481.91 1126.31,456.352 1151.35,317 1123.04,7"
         style="fill:none;stroke:#231f20;stroke-width:14;stroke-linecap:round;stroke-linejoin:round;stroke-miterlimit:10;stroke-dasharray:none;stroke-opacity:1"
         id="path76"
         inkscape:connector-curvature="0" /><path
         d="M 999.164,26.9492 1052.4,332.449 c 3.33,14.16 7.5,28.321 20,34.992"
         style="fill:none;stroke:#231f20;stroke-width:12;stroke-linecap:round;stroke-linejoin:round;stroke-miterlimit:10;stroke-dasharray:none;stroke-opacity:1"
         id="path78"
         inkscape:connector-curvature="0" /><path
         d="m 708.063,1155.13 c -24.875,21.69 -90.325,36.04 -129.375,-5.22"
         style="fill:none;stroke:#231f20;stroke-width:14;stroke-linecap:round;stroke-linejoin:round;stroke-miterlimit:10;stroke-dasharray:none;stroke-opacity:1"
         id="path80"
         inkscape:connector-curvature="0" /><path
         d="m 703.492,1043.51 c -24.836,62.76 -145.742,71.04 -137.969,-73.639"
         style="fill:none;stroke:#231f20;stroke-width:16;stroke-linecap:round;stroke-linejoin:round;stroke-miterlimit:10;stroke-dasharray:none;stroke-opacity:1"
         id="path82"
         inkscape:connector-curvature="0" /><path
         d="m 461.09,1035.05 c 0,0 -17.559,40.43 -56.262,31.08 -80.711,-19.47 -66.687,-192.567 63,-215.985"
         style="fill:none;stroke:#231f20;stroke-width:14;stroke-linecap:round;stroke-linejoin:round;stroke-miterlimit:10;stroke-dasharray:none;stroke-opacity:1"
         id="path84"
         inkscape:connector-curvature="0" /><path
         d="m 403.188,1019.83 c 0,0 27.257,16.06 54.621,-55.967"
         style="fill:none;stroke:#231f20;stroke-width:14;stroke-linecap:round;stroke-linejoin:round;stroke-miterlimit:10;stroke-dasharray:none;stroke-opacity:1"
         id="path86"
         inkscape:connector-curvature="0" /><path
         d="m 903.883,1142.18 c 27.508,18.22 94.265,23.82 127.557,-22.22"
         style="fill:none;stroke:#231f20;stroke-width:14;stroke-linecap:round;stroke-linejoin:round;stroke-miterlimit:10;stroke-dasharray:none;stroke-opacity:1"
         id="path88"
         inkscape:connector-curvature="0" /><path
         d="m 896.266,1024.84 c 27.996,65.03 157.504,61.4 129.904,-85.449"
         style="fill:none;stroke:#231f20;stroke-width:16;stroke-linecap:round;stroke-linejoin:round;stroke-miterlimit:10;stroke-dasharray:none;stroke-opacity:1"
         id="path90"
         inkscape:connector-curvature="0" /><path
         d="m 1135.24,989.781 c 0,0 22.74,37.769 59.87,23.419 77.44,-29.95 45.09,-199.97 -88.6,-205.977"
         style="fill:none;stroke:#231f20;stroke-width:14;stroke-linecap:round;stroke-linejoin:round;stroke-miterlimit:10;stroke-dasharray:none;stroke-opacity:1"
         id="path92"
         inkscape:connector-curvature="0" /><path
         d="m 1189.88,967.125 c 0,0 -24.88,19.492 -61.51,-48.289"
         style="fill:none;stroke:#231f20;stroke-width:14;stroke-linecap:round;stroke-linejoin:round;stroke-miterlimit:10;stroke-dasharray:none;stroke-opacity:1"
         id="path94"
         inkscape:connector-curvature="0" /><path
         d="m 544.625,1013.84 21.113,-15.172"
         style="fill:none;stroke:#231f20;stroke-width:14;stroke-linecap:round;stroke-linejoin:round;stroke-miterlimit:10;stroke-dasharray:none;stroke-opacity:1"
         id="path96"
         inkscape:connector-curvature="0" /><path
         d="m 1029.75,967.965 30.41,11.769"
         style="fill:none;stroke:#231f20;stroke-width:14;stroke-linecap:round;stroke-linejoin:round;stroke-miterlimit:10;stroke-dasharray:none;stroke-opacity:1"
         id="path98"
         inkscape:connector-curvature="0" /><path
         d="m 786.547,839.266 1.32,19.949"
         style="fill:none;stroke:#231f20;stroke-width:14;stroke-linecap:round;stroke-linejoin:round;stroke-miterlimit:10;stroke-dasharray:none;stroke-opacity:1"
         id="path100"
         inkscape:connector-curvature="0" /><path
         d="m 1134.48,1027.57 c -1.24,-66.429 -10.73,-172.035 -45.07,-255.961 -64.26,-156.984 -237.785,-182.05 -319.023,-176.679 -81.242,5.371 -249.961,53.086 -292.981,217.168 -24.304,92.703 -17.859,205.792 -9.636,270.552 134.753,304.1 513.406,252.74 513.406,252.74 l 64.384,20.62 -31.64,-32.81 c 0,0 24.96,-162.83 120.56,-295.63"
         style="fill:none;stroke:#231f20;stroke-width:14;stroke-linecap:round;stroke-linejoin:round;stroke-miterlimit:10;stroke-dasharray:none;stroke-opacity:1"
         id="path102"
         inkscape:connector-curvature="0" /><path
         d="m 389.313,1062.89 c 0,0 -37.239,218.43 81.835,369.41 188.438,238.92 552.092,147.5 591.942,39.64 0,0 302.47,-90.93 152.79,-469.3"
         style="fill:none;stroke:#231f20;stroke-width:14;stroke-linecap:round;stroke-linejoin:round;stroke-miterlimit:10;stroke-dasharray:none;stroke-opacity:1"
         id="path104"
         inkscape:connector-curvature="0" /><path
         d="m 423.695,865.809 c 6.887,-47.532 16.731,-150.547 -16.718,-203.711 0,0 74.543,10.086 84.394,32.832 0,0 13.926,-34.543 105.442,-46.016"
         style="fill:none;stroke:#231f20;stroke-width:14;stroke-linecap:round;stroke-linejoin:round;stroke-miterlimit:10;stroke-dasharray:none;stroke-opacity:1"
         id="path106"
         inkscape:connector-curvature="0" /><path
         d="m 1180.55,830.652 c 1.68,-74.64 -23.32,-184.64 -85.91,-232.422 l -15.89,87.899 c 0,0 -27.63,-66.59 -143.844,-64.316"
         style="fill:none;stroke:#231f20;stroke-width:14;stroke-linecap:round;stroke-linejoin:round;stroke-miterlimit:10;stroke-dasharray:none;stroke-opacity:1"
         id="path108"
         inkscape:connector-curvature="0" /><path
         d="m 826.645,535.16 -3.516,58.059"
         style="fill:none;stroke:#231f20;stroke-width:14;stroke-linecap:round;stroke-linejoin:round;stroke-miterlimit:10;stroke-dasharray:none;stroke-opacity:1"
         id="path110"
         inkscape:connector-curvature="0" /><path
         d="M 724.723,600.172 718.199,540.18"
         style="fill:none;stroke:#231f20;stroke-width:14;stroke-linecap:round;stroke-linejoin:round;stroke-miterlimit:10;stroke-dasharray:none;stroke-opacity:1"
         id="path112"
         inkscape:connector-curvature="0" /><path
         d="m 629.273,567.121 c 0,0 4.239,-64.711 79.551,-124.121 80.938,-63.84 221.094,-34.078 260.254,65.5"
         style="fill:none;stroke:#231f20;stroke-width:14;stroke-linecap:round;stroke-linejoin:round;stroke-miterlimit:10;stroke-dasharray:none;stroke-opacity:1"
         id="path114"
         inkscape:connector-curvature="0" /><path
         d="m 683.277,802.164 c 0,0 96.278,-120.008 209.942,-14.344"
         style="fill:none;stroke:#231f20;stroke-width:14;stroke-linecap:round;stroke-linejoin:round;stroke-miterlimit:10;stroke-dasharray:none;stroke-opacity:1"
         id="path116"
         inkscape:connector-curvature="0" /><path
         d="M 452.828,449.34 C 483.109,350.039 521.137,102.59 532.191,28.3711"
         style="fill:none;stroke:#231f20;stroke-width:14;stroke-linecap:round;stroke-linejoin:round;stroke-miterlimit:10;stroke-dasharray:none;stroke-opacity:1"
         id="path118"
         inkscape:connector-curvature="0" /><path
         d="m 714.703,561.012 c 0,0 -69.367,0.558 -107.695,17.226"
         style="fill:none;stroke:#231f20;stroke-width:14;stroke-linecap:round;stroke-linejoin:round;stroke-miterlimit:10;stroke-dasharray:none;stroke-opacity:1"
         id="path120"
         inkscape:connector-curvature="0" /><path
         d="m 607.008,578.238 c -38.332,16.672 -164.57,252.024 -198.965,324.442 -47.5,100 -142.676,371.23 -142.676,371.23 L 150.316,1150.32 c 0,0 214.309,-421.906 302.637,-701.91"
         style="fill:#660080;fill-opacity:1;fill-rule:nonzero;stroke:none"
         id="path122"
         inkscape:connector-curvature="0" /><path
         d="m 607.008,578.238 c -38.332,16.672 -164.57,252.024 -198.965,324.442 -47.5,100 -142.676,371.23 -142.676,371.23 L 150.316,1150.32 c 0,0 214.309,-421.906 302.637,-701.91"
         style="fill:none;stroke:#231f20;stroke-width:14;stroke-linecap:round;stroke-linejoin:round;stroke-miterlimit:10;stroke-dasharray:none;stroke-opacity:1"
         id="path124"
         inkscape:connector-curvature="0" /><path
         d="m 41.5195,1304.71 c 7.2539,-4.93 19.0313,-14 35.9571,-17.96 19.4804,-4.56 34.4534,8.32 35.6324,22.67 23.496,-2.76 46.621,19.12 40.735,34.06 14.773,-2.92 25.476,10.24 24.199,20.91"
         style="fill:none;stroke:#231f20;stroke-width:14;stroke-linecap:round;stroke-linejoin:round;stroke-miterlimit:10;stroke-dasharray:none;stroke-opacity:1"
         id="path126"
         inkscape:connector-curvature="0" /><path
         d="m 1039.02,7 18.73,120.941 c -80.754,84.379 -103.418,203.27 -103.418,203.27 0,0 -3.039,145.578 -28.34,206.289 l -37.929,13.512 c 31.386,-116.793 17.812,-210.231 17.812,-210.231 l -242.383,15.641 c 0,0 -15.988,109.066 15.399,221.816 l -43.328,0 C 610.27,520.801 615.035,353.102 615.035,353.102 c 0,0 -37.422,-121.071 -118.176,-195.043 L 515.992,7 1039.02,7"
         style="fill:#fabb44;fill-opacity:1;fill-rule:nonzero;stroke:none"
         id="path128"
         inkscape:connector-curvature="0" /><path
         d="M 772.262,89.7617 C 558.754,70.9883 499.625,135.41 499.625,135.41 L 515.992,7 l 523.028,0 18.73,120.941 c -5.3,5.528 -44.26,53.778 -49.06,59.579 0,-1.372 -80.002,-84.008 -236.428,-97.7583"
         style="fill:#e4a83f;fill-opacity:1;fill-rule:nonzero;stroke:none"
         id="path130"
         inkscape:connector-curvature="0" /><path
         d="m 1039.02,7 18.73,120.941 c -80.754,84.379 -103.418,203.27 -103.418,203.27 0,0 -3.039,145.578 -28.34,206.289 l -37.929,13.512 c 31.386,-116.793 17.812,-210.231 17.812,-210.231 l -242.383,15.641 c 0,0 -15.988,109.066 15.399,221.816 l -43.328,0 C 610.27,520.801 615.035,353.102 615.035,353.102 c 0,0 -37.422,-121.071 -118.176,-195.043 L 515.992,7"
         style="fill:none;stroke:#231f20;stroke-width:14;stroke-linecap:round;stroke-linejoin:round;stroke-miterlimit:10;stroke-dasharray:none;stroke-opacity:1"
         id="path132"
         inkscape:connector-curvature="0" /></g></g></svg>
